<?xml version="1.0" standalone="no"?>
<!DOCTYPE svg PUBLIC "-//W3C//DTD SVG 20010904//EN"
 "http://www.w3.org/TR/2001/REC-SVG-20010904/DTD/svg10.dtd">
<svg version="1.0" xmlns="http://www.w3.org/2000/svg"
 width="640.000000pt" height="640.000000pt" viewBox="0 0 640.000000 640.000000"
 preserveAspectRatio="xMidYMid meet">
<metadata>
Created by potrace 1.14, written by Peter Selinger 2001-2017
</metadata>
<g transform="translate(0.000000,640.000000) scale(0.100000,-0.100000)"
fill="#000000" stroke="none">
<path d="M3163 5486 c1 -6 -4 -10 -10 -8 -7 1 -13 -7 -13 -18 0 -11 -4 -20
-10 -20 -5 0 -10 -7 -10 -15 0 -8 -4 -15 -10 -15 -5 0 -10 -7 -10 -15 0 -8 -5
-15 -12 -15 -6 0 -9 -2 -6 -5 3 -3 -7 -31 -23 -61 -15 -31 -25 -63 -22 -72 4
-10 2 -13 -5 -8 -8 5 -10 2 -6 -8 3 -9 1 -16 -4 -16 -7 0 -8 -10 -2 -30 5 -18
5 -32 -1 -36 -6 -4 -6 -11 1 -19 8 -9 8 -15 0 -20 -6 -3 -8 -11 -5 -16 9 -14
-8 -11 -33 7 -12 8 -22 12 -22 8 0 -3 -10 1 -23 9 -16 10 -28 12 -40 5 -10 -5
-22 -6 -27 -3 -7 4 -10 -6 -8 -29 1 -19 5 -33 9 -30 11 6 37 -6 42 -21 4 -9
-7 -13 -41 -14 -71 -2 -82 -4 -82 -13 0 -6 -6 -8 -12 -6 -7 3 -18 0 -26 -6
-50 -42 -82 -76 -97 -106 -20 -37 -26 -80 -12 -80 4 0 5 -5 2 -10 -4 -6 -1
-18 7 -27 11 -14 11 -16 -2 -8 -9 5 -7 -1 5 -14 11 -13 19 -26 18 -30 -3 -9
64 -70 71 -64 3 3 12 1 19 -5 8 -7 17 -9 20 -5 4 3 7 1 7 -4 0 -6 11 -10 25
-9 13 2 22 -1 19 -6 -3 -5 6 -7 20 -4 15 3 26 0 26 -6 0 -6 6 -6 15 2 8 7 15
9 15 5 0 -4 8 -1 17 6 11 10 14 10 9 2 -4 -8 -1 -13 9 -13 10 0 13 5 9 13 -6
9 -5 9 8 0 8 -7 18 -9 22 -5 4 4 7 3 6 -3 -5 -24 1 -35 20 -35 11 0 20 -5 20
-11 0 -6 9 -8 22 -3 22 7 22 6 5 -20 -10 -14 -15 -26 -11 -26 4 0 1 -7 -6 -15
-6 -8 -9 -19 -5 -24 3 -7 0 -8 -9 -5 -9 3 -17 10 -17 15 -1 5 -2 14 -3 19 0 6
-5 10 -11 9 -5 0 -12 7 -15 16 -3 9 -10 17 -15 17 -6 0 -18 4 -27 9 -22 12
-48 -24 -42 -59 3 -14 2 -32 -1 -40 -5 -13 -8 -12 -19 4 -8 10 -12 22 -9 27 2
4 -1 6 -9 5 -7 -2 -12 3 -10 10 1 8 -1 11 -6 8 -5 -3 -18 5 -29 17 -28 31 -67
63 -95 78 -12 6 -26 17 -30 23 -5 7 -8 6 -8 -3 0 -11 -5 -9 -21 5 -12 10 -23
18 -25 17 -2 -2 -7 -3 -11 -2 -5 1 -18 0 -30 -1 -13 -1 -23 4 -23 10 0 7 -7 9
-16 6 -13 -5 -15 -1 -12 19 3 13 1 22 -4 19 -4 -3 -11 2 -14 10 -3 9 -12 16
-20 16 -8 0 -14 5 -14 11 0 6 -9 9 -20 6 -11 -3 -22 -1 -25 4 -3 4 -17 4 -30
-1 -14 -5 -25 -7 -25 -4 0 2 -10 -4 -22 -16 -12 -11 -25 -20 -30 -20 -4 0 -7
-3 -6 -7 1 -5 -3 -18 -10 -30 -6 -12 -9 -29 -5 -39 5 -13 3 -15 -8 -9 -12 8
-12 6 -1 -8 8 -9 11 -21 7 -27 -3 -5 1 -13 10 -16 9 -4 14 -12 11 -20 -3 -7 3
-15 12 -17 10 -3 5 -5 -10 -6 -16 -1 -28 4 -28 12 0 8 -4 7 -10 -3 -9 -13 -10
-13 -10 0 0 10 -3 11 -8 4 -4 -6 -15 -10 -24 -8 -10 1 -18 -2 -18 -7 0 -6 -4
-7 -10 -4 -5 3 -15 -5 -22 -19 -6 -14 -16 -26 -21 -26 -6 0 -7 -3 -4 -7 4 -3
2 -12 -4 -20 -9 -10 -8 -13 0 -13 7 0 11 -6 10 -12 -3 -20 20 -70 30 -64 5 3
12 -1 15 -10 4 -9 9 -14 13 -11 3 4 12 2 20 -5 7 -6 16 -8 20 -5 3 4 15 2 26
-4 13 -7 17 -7 13 -1 -3 6 3 14 15 17 11 4 30 16 41 27 14 14 27 18 41 13 12
-4 32 -6 45 -6 16 1 21 -3 16 -12 -4 -6 3 -3 16 8 13 11 20 14 16 8 -4 -7 -2
-13 3 -13 6 0 11 3 11 8 0 4 21 8 48 9 26 1 57 4 70 7 13 3 22 0 22 -7 0 -8 3
-8 8 -2 7 11 62 15 62 5 0 -3 10 -6 22 -7 11 -1 24 -6 27 -10 3 -4 12 -9 19
-11 20 -4 113 -102 107 -113 -4 -5 1 -9 9 -9 9 0 16 -3 17 -7 0 -5 2 -16 4
-25 2 -10 -1 -20 -6 -24 -5 -3 -9 1 -9 8 0 11 -2 11 -9 0 -4 -8 -7 -24 -5 -38
2 -21 -1 -24 -24 -21 -15 3 -26 10 -25 16 2 6 -2 11 -8 11 -6 0 -8 9 -4 20 4
12 1 27 -5 35 -6 8 -9 18 -6 24 4 5 -3 12 -14 16 -11 4 -18 10 -15 15 5 8 -23
25 -37 22 -5 -1 -8 3 -8 10 0 6 -3 8 -7 5 -3 -4 -13 -1 -21 6 -13 10 -14 9 -7
-3 7 -12 6 -13 -6 -3 -12 10 -20 9 -39 -4 -13 -9 -20 -11 -16 -5 13 21 -2 13
-38 -20 -29 -28 -64 -104 -58 -129 3 -14 -50 -16 -55 -3 -3 8 -8 12 -12 10 -4
-3 -8 5 -8 16 -4 44 -75 94 -107 76 -15 -8 -17 -8 -11 2 6 10 2 12 -16 7 -13
-4 -32 -7 -42 -7 -10 0 -15 -4 -12 -10 3 -5 -3 -10 -14 -10 -19 0 -26 -10 -22
-32 0 -5 -4 -7 -10 -5 -6 1 -13 -7 -15 -17 -1 -10 -9 -23 -16 -27 -7 -5 -8 -9
-3 -9 6 0 11 -9 11 -20 0 -11 -4 -20 -8 -20 -4 0 -5 -6 -2 -13 3 -9 -4 -13
-21 -13 -14 0 -25 6 -25 13 0 7 -5 13 -11 13 -5 0 -7 5 -4 11 7 11 -34 56 -47
51 -5 -1 -8 3 -8 9 0 5 -4 8 -9 5 -4 -3 -22 -1 -40 4 -17 5 -29 5 -26 0 3 -5
-3 -8 -12 -8 -10 0 -25 -1 -32 -3 -21 -6 -62 -50 -55 -60 3 -5 0 -9 -5 -9 -6
0 -11 -9 -11 -19 0 -11 -5 -23 -11 -26 -6 -5 -4 -12 8 -21 14 -11 15 -13 3
-14 -12 0 -12 -2 -2 -9 14 -9 13 -32 -2 -43 -10 -7 -48 30 -42 41 2 3 -7 16
-20 29 -13 12 -24 19 -24 15 0 -4 -4 -2 -9 6 -5 8 -15 16 -23 17 -7 1 -25 4
-40 7 -16 3 -28 2 -28 -3 0 -4 -13 -7 -29 -6 -17 1 -27 -2 -25 -6 3 -5 -2 -15
-10 -24 -9 -8 -16 -12 -16 -7 0 4 -7 -5 -15 -21 -8 -15 -12 -32 -9 -37 3 -5 1
-9 -4 -9 -12 0 -2 -53 12 -62 7 -5 6 -8 -3 -8 -11 0 -11 -4 3 -18 15 -18 15
-20 -2 -35 -10 -10 -22 -14 -25 -10 -4 3 -7 1 -7 -5 0 -7 -7 -12 -15 -12 -13
0 -21 25 -16 53 0 4 -3 7 -7 7 -5 0 -14 12 -20 26 -7 14 -16 23 -21 19 -5 -3
-12 -1 -16 5 -4 6 -11 8 -16 4 -5 -3 -9 -2 -8 3 3 20 -2 25 -16 13 -8 -7 -15
-8 -15 -3 0 13 -51 8 -59 -6 -5 -7 -10 -12 -12 -10 -2 1 -17 -5 -34 -14 -16
-9 -24 -16 -17 -17 7 0 10 -5 7 -10 -4 -6 -10 -8 -14 -6 -6 4 -10 -10 -13 -51
-1 -7 -6 -13 -11 -13 -5 0 -4 -7 3 -15 6 -8 9 -19 5 -25 -3 -5 -2 -10 4 -10 6
0 8 -7 5 -15 -4 -10 0 -15 11 -15 9 0 13 -4 10 -10 -3 -5 0 -10 8 -10 8 0 17
-7 21 -15 3 -8 1 -15 -5 -15 -6 0 -7 -5 -3 -12 4 -6 3 -8 -3 -5 -5 3 -18 -4
-28 -15 -17 -21 -18 -21 -32 -2 -8 11 -10 20 -3 22 6 2 6 11 -2 25 -7 12 -12
25 -13 30 0 4 -3 6 -6 5 -4 -2 -15 7 -25 20 -11 13 -31 24 -47 26 -15 1 -29 5
-32 7 -8 8 -75 -3 -70 -11 3 -4 -9 -13 -25 -20 -17 -7 -28 -15 -26 -18 3 -2 0
-14 -6 -26 -7 -11 -12 -24 -13 -28 0 -3 -3 -9 -6 -13 -11 -10 2 -45 15 -38 8
4 8 2 -1 -7 -21 -23 33 -92 71 -89 5 0 12 -5 17 -12 11 -18 -9 -52 -27 -45 -8
3 -13 2 -11 -2 2 -4 -6 -17 -19 -30 -22 -21 -24 -21 -33 -4 -6 11 -6 24 1 36
8 14 7 17 -1 12 -10 -6 -15 6 -12 27 0 4 -3 7 -9 7 -5 0 -10 8 -10 18 0 14 -2
15 -10 2 -8 -13 -10 -13 -10 2 0 10 -16 22 -44 31 -38 13 -48 13 -70 1 -19 -9
-25 -10 -19 -1 5 9 3 9 -9 0 -8 -7 -19 -9 -23 -5 -5 4 -5 2 -1 -5 4 -7 -2 -18
-14 -25 -11 -7 -20 -18 -20 -25 0 -7 -5 -13 -11 -13 -5 0 -7 -4 -4 -10 3 -5 1
-18 -5 -29 -5 -11 -6 -22 -1 -25 5 -3 8 -18 8 -33 1 -15 10 -34 22 -44 11 -9
21 -22 21 -28 0 -6 7 -8 15 -5 8 4 15 1 15 -6 0 -6 5 -8 10 -5 5 3 10 0 10 -7
0 -10 3 -9 9 1 8 13 12 13 26 1 15 -12 14 -15 -7 -26 -13 -8 -18 -13 -13 -14
6 0 -3 -9 -20 -20 -16 -11 -25 -20 -20 -20 6 0 -5 -8 -23 -17 -18 -8 -30 -18
-28 -21 3 -3 14 1 23 9 15 11 15 10 -1 -9 -26 -30 -42 -28 -49 6 -6 30 -67
106 -67 84 0 -10 -4 -9 -16 2 -8 9 -20 14 -25 11 -5 -4 -9 -1 -9 6 0 8 -4 8
-15 -1 -8 -7 -15 -9 -15 -5 0 4 -8 1 -17 -6 -14 -12 -16 -12 -9 1 4 8 1 7 -7
-3 -11 -14 -16 -15 -20 -5 -4 11 -6 11 -6 0 -1 -18 -27 -43 -36 -34 -4 4 -6 2
-5 -3 1 -6 1 -12 0 -15 -18 -47 -16 -112 5 -133 8 -8 11 -17 8 -21 -3 -3 2 -8
11 -12 9 -3 13 -11 9 -17 -3 -5 -1 -7 5 -3 6 3 13 2 17 -4 4 -6 10 -8 14 -5 5
2 17 -2 27 -9 13 -10 24 -11 36 -5 12 7 18 6 18 -2 0 -6 6 -9 14 -6 10 4 13
-1 11 -18 -1 -14 1 -23 5 -20 7 4 35 -58 31 -70 -1 -3 5 -13 14 -21 8 -9 15
-24 15 -35 0 -13 4 -18 12 -13 8 5 9 2 5 -9 -4 -10 -2 -17 4 -17 6 0 8 -7 5
-15 -3 -9 1 -18 9 -21 8 -4 15 -15 15 -25 0 -10 4 -19 10 -19 5 0 9 -3 9 -7
-3 -19 2 -34 9 -29 7 4 11 -9 14 -51 1 -7 5 -10 10 -7 4 3 8 1 8 -5 0 -6 12
-36 27 -68 15 -32 26 -61 25 -65 -1 -5 3 -8 9 -8 6 0 9 -6 6 -14 -3 -8 -1 -16
5 -18 6 -2 12 -12 14 -22 2 -11 -2 -16 -11 -12 -9 3 -12 0 -8 -10 3 -9 0 -12
-9 -9 -7 3 -29 -6 -48 -20 -19 -14 -30 -25 -25 -25 5 0 0 -7 -11 -15 -10 -8
-15 -15 -10 -15 5 0 3 -7 -4 -15 -14 -17 -20 -95 -8 -95 5 0 4 -10 -3 -21 -6
-12 -7 -19 -2 -16 4 3 14 -1 21 -9 7 -8 10 -14 6 -14 -10 0 49 -50 61 -51 6
-1 13 -1 18 0 4 0 7 -3 7 -8 0 -5 8 -8 17 -6 10 1 26 -2 37 -7 12 -7 16 -7 12
0 -4 6 1 10 11 10 10 0 34 7 53 15 19 9 28 17 20 17 -10 0 -7 5 8 13 12 7 20
15 17 18 -3 3 6 11 21 17 14 7 23 8 20 3 -3 -5 3 -7 14 -4 11 3 17 10 13 16
-4 6 0 8 10 4 9 -3 19 -2 23 4 4 7 10 6 19 -1 10 -8 15 -8 21 1 5 8 3 9 -6 4
-9 -5 -11 -4 -6 4 4 6 18 9 31 7 14 -3 27 0 31 5 3 5 10 7 15 4 5 -4 9 -1 9 6
0 9 3 10 11 2 8 -8 19 -7 40 4 16 8 33 12 39 8 5 -3 10 -2 10 3 0 5 11 8 25 7
14 -2 25 1 25 7 0 5 9 6 20 3 11 -3 20 -2 20 4 0 5 9 8 20 6 11 -2 22 1 26 6
4 6 10 6 19 -1 9 -7 15 -8 19 -1 4 6 14 7 23 4 10 -4 14 -2 10 4 -4 6 0 13 8
17 8 3 15 1 15 -5 0 -6 7 -6 19 1 14 7 22 7 27 -1 5 -9 11 -6 20 6 8 10 17 16
20 12 4 -3 15 -2 25 4 14 7 19 6 19 -2 0 -8 4 -9 13 0 8 6 17 8 20 4 4 -3 7
-1 7 5 0 6 7 9 17 5 11 -5 14 -3 8 6 -6 10 -3 11 12 3 12 -7 24 -7 37 0 14 8
17 8 11 -2 -6 -9 -3 -9 14 -1 12 7 27 9 33 5 7 -5 8 -3 3 5 -5 9 0 12 16 10
13 -2 30 0 37 4 7 5 12 3 12 -3 0 -6 5 -8 13 -3 12 7 45 13 80 14 9 0 17 5 17
11 0 7 4 7 13 0 8 -7 18 -7 27 -2 9 5 19 5 26 -1 8 -7 14 -6 19 1 4 7 13 7 27
-1 16 -9 19 -8 13 2 -6 9 -2 11 13 7 12 -4 20 -2 17 3 -4 5 8 7 24 5 17 -2 31
0 31 5 0 5 11 4 24 -1 13 -5 26 -7 29 -4 2 3 32 5 65 6 37 1 59 5 55 11 -3 6
-2 7 4 4 16 -10 64 -16 58 -8 -2 5 25 8 60 7 36 -1 65 2 65 7 0 4 8 3 18 -2
13 -7 22 -7 30 1 8 8 15 8 24 0 9 -7 19 -7 28 -2 9 5 19 5 27 -1 7 -6 18 -7
25 -3 17 11 58 11 58 1 0 -4 6 -5 12 -1 18 11 62 11 70 -1 5 -6 11 -6 19 2 8
8 18 9 31 2 11 -6 18 -6 18 0 0 10 19 9 37 -2 6 -4 14 -3 18 3 4 6 12 7 18 3
18 -11 36 -12 43 -2 3 5 13 5 25 -1 11 -7 19 -7 19 -1 0 8 20 8 40 1 14 -6 37
-5 58 2 12 4 22 3 22 -2 0 -6 9 -6 25 0 17 6 25 6 25 -1 0 -6 6 -7 12 -3 18
11 62 11 71 -1 6 -6 10 -6 14 2 3 9 10 10 23 3 10 -6 21 -6 24 -2 6 10 36 9
53 -1 6 -4 15 -3 18 3 5 8 11 8 20 0 10 -8 19 -8 34 -1 14 8 22 8 27 0 4 -7
10 -7 16 -1 7 7 19 7 33 2 13 -5 33 -6 45 -3 17 5 21 3 15 -6 -6 -10 -3 -11
13 -2 15 8 22 8 25 -2 4 -9 8 -9 15 2 6 8 12 9 16 3 4 -6 32 -10 66 -8 33 1
61 -2 63 -7 2 -6 11 -5 24 2 16 8 24 8 29 0 4 -8 9 -7 15 2 5 9 9 10 9 2 0 -6
9 -9 22 -5 14 3 19 1 14 -6 -5 -8 -2 -10 9 -6 8 4 23 0 32 -7 14 -12 16 -12 8
1 -8 13 -7 13 8 1 12 -9 17 -10 17 -2 0 8 5 9 18 2 13 -7 23 -6 30 1 7 7 12 8
12 2 0 -10 32 -15 117 -17 29 -1 53 -5 53 -9 0 -5 14 -8 31 -8 17 0 28 -4 24
-10 -4 -7 3 -7 19 0 14 5 26 6 26 1 0 -4 11 -7 25 -6 14 2 27 0 30 -5 3 -5 16
-7 30 -5 14 1 28 -1 30 -5 3 -5 14 -6 25 -3 11 3 20 0 20 -6 0 -5 7 -8 15 -5
8 4 15 1 15 -6 0 -10 3 -10 15 0 8 7 15 9 15 4 0 -8 21 -13 78 -17 12 -1 22
-5 22 -9 0 -4 9 -5 20 -3 11 2 22 -1 26 -7 4 -6 10 -5 15 3 7 11 9 11 9 -1 0
-11 10 -15 35 -14 19 1 35 -2 35 -7 0 -4 7 -5 17 -2 9 4 14 2 10 -3 -3 -6 7
-9 24 -8 16 1 36 -5 44 -13 9 -8 15 -10 15 -3 0 7 6 8 19 0 11 -5 32 -12 48
-14 15 -2 36 -7 46 -11 10 -4 20 -5 24 -2 3 3 12 -1 20 -9 9 -8 22 -13 29 -10
8 3 19 -5 25 -17 14 -25 39 -52 39 -41 0 3 6 1 13 -5 8 -6 17 -8 20 -4 4 3 7
2 7 -4 0 -16 81 -9 123 12 26 12 45 30 55 54 10 20 20 37 23 39 4 2 4 12 1 24
-4 15 -2 19 7 13 10 -6 11 -3 2 12 -6 11 -7 23 -4 27 3 3 1 6 -6 6 -7 0 -10 4
-6 9 3 5 0 13 -6 17 -8 4 -7 9 2 15 9 5 10 9 2 9 -6 0 -26 15 -45 33 -18 18
-44 34 -57 34 -13 1 -29 7 -35 14 -8 9 -7 10 7 6 14 -5 16 -3 9 11 -11 20 -4
45 9 36 5 -3 9 4 9 15 0 11 7 27 16 35 8 9 12 16 8 16 -3 0 -2 6 4 13 6 6 11
15 11 20 0 4 7 20 15 36 9 16 12 31 9 35 -4 3 -2 6 4 6 5 0 16 18 23 40 7 22
17 40 22 40 6 0 8 6 6 12 -3 7 1 19 9 26 7 8 11 18 8 23 -4 5 -1 9 4 9 6 0 10
3 9 8 0 4 11 34 27 67 15 33 28 65 28 72 0 7 4 10 8 8 9 -6 21 24 14 35 -9 15
25 32 67 34 25 0 48 7 55 16 7 8 13 11 13 6 0 -13 38 33 45 55 4 11 9 17 13
15 4 -2 7 16 7 40 0 24 -3 44 -7 44 -5 0 -8 9 -8 21 0 11 -4 18 -8 15 -5 -3
-15 6 -22 20 -13 23 -29 31 -73 38 -9 1 -20 5 -23 9 -4 4 -16 -1 -27 -10 -11
-10 -17 -12 -13 -5 9 15 -61 -26 -71 -42 -9 -14 -14 -36 -14 -59 0 -13 -4 -15
-17 -8 -26 14 -102 89 -102 101 0 5 -5 9 -11 8 -6 -2 -14 3 -17 11 -3 8 0 11
7 7 6 -4 11 -2 11 5 0 8 5 7 17 -2 11 -10 14 -10 9 -1 -5 8 0 12 13 12 27 0
71 39 71 62 0 12 4 16 12 12 8 -5 9 -2 5 9 -3 9 -2 19 4 22 5 4 6 12 2 18 -4
7 -8 19 -9 27 -1 23 -38 80 -51 80 -7 0 -13 3 -13 8 0 11 -62 27 -93 24 -17
-2 -25 -8 -21 -14 5 -7 2 -8 -5 -3 -12 7 -79 -55 -82 -76 -1 -5 -2 -13 -3 -18
0 -5 -4 -13 -8 -17 -12 -12 -9 -26 4 -18 7 4 8 3 4 -4 -5 -9 -13 -9 -27 -2
-11 6 -17 15 -14 20 3 5 -4 11 -15 15 -11 3 -20 10 -20 15 0 5 -7 10 -15 12
-21 4 -4 27 24 33 23 4 61 40 61 57 0 17 3 23 19 35 11 9 12 12 3 13 -9 0 -10
5 -4 18 7 12 2 29 -19 62 -16 25 -29 41 -29 35 0 -5 -6 -3 -13 6 -17 22 -134
49 -121 27 3 -4 -7 -10 -21 -14 -14 -3 -22 -11 -18 -17 4 -6 0 -8 -9 -5 -10 4
-19 -5 -28 -30 -7 -21 -17 -48 -22 -61 l-8 -24 -19 22 c-10 11 -23 21 -30 21
-18 0 -13 16 13 36 14 10 23 21 20 25 -2 4 0 10 6 14 6 4 8 11 5 16 -4 5 -2 9
4 9 5 0 9 8 9 18 0 9 1 24 3 32 2 8 -1 14 -8 13 -7 -2 -10 3 -7 11 3 8 0 17
-5 21 -6 3 -9 10 -7 14 3 4 -6 14 -19 21 -14 7 -25 17 -25 22 0 5 -4 6 -10 3
-5 -3 -10 -1 -10 6 0 6 -8 9 -20 6 -11 -3 -20 -2 -20 2 0 7 -35 7 -50 1 -3 -1
-7 -3 -10 -3 -3 0 -23 -18 -45 -40 -22 -21 -33 -36 -25 -31 11 5 10 2 -2 -13
-10 -11 -18 -25 -18 -31 0 -16 -11 -15 -34 3 -10 8 -23 12 -27 9 -4 -2 -7 5
-6 16 1 10 7 22 15 25 7 3 11 9 7 14 -3 5 -1 12 5 16 6 4 7 12 3 18 -12 19
-12 36 -1 43 5 3 0 15 -11 26 -12 10 -18 24 -15 30 4 6 3 8 -3 5 -5 -3 -17 3
-26 14 -10 11 -22 17 -27 14 -6 -3 -10 -1 -10 6 0 7 -3 9 -7 6 -3 -4 -12 1
-20 11 -14 16 -14 16 -9 0 4 -14 1 -16 -17 -9 -15 5 -34 1 -57 -10 -19 -10
-30 -18 -25 -19 6 0 2 -5 -8 -11 -9 -6 -15 -14 -12 -20 4 -5 0 -9 -8 -9 -10 0
-13 -7 -10 -18 3 -15 -2 -18 -25 -18 -21 0 -29 4 -27 15 1 8 6 16 12 18 7 3 8
16 3 38 -4 19 -5 36 -2 39 2 3 -1 12 -8 21 -7 8 -9 15 -4 15 4 0 -1 6 -11 14
-11 8 -24 12 -29 8 -5 -3 -7 2 -3 11 6 16 -14 23 -45 18 -5 0 -8 3 -8 8 0 11
-59 4 -76 -10 -7 -6 -19 -7 -25 -3 -8 5 -9 3 -4 -6 6 -10 4 -12 -9 -7 -10 4
-15 3 -11 -3 3 -6 1 -10 -6 -10 -7 0 -9 -3 -6 -7 4 -3 2 -12 -3 -19 -6 -6 -9
-18 -8 -25 4 -18 -44 -20 -60 -3 -6 7 -8 15 -3 18 29 18 -45 149 -77 138 -7
-2 -12 1 -12 7 0 6 -12 8 -30 5 -22 -5 -30 -3 -30 7 -1 10 -4 9 -10 -3 -6 -10
-19 -15 -32 -13 -11 3 -18 2 -15 -1 3 -4 -6 -17 -21 -31 -15 -14 -27 -29 -27
-35 0 -5 -8 -16 -18 -23 -10 -7 -14 -15 -10 -17 4 -3 2 -3 -5 -1 -8 1 -23 3
-33 3 -11 0 -18 4 -14 9 3 5 1 12 -4 16 -7 3 -7 15 -1 30 5 13 6 25 2 27 -4 2
-18 18 -31 36 -12 18 -27 30 -32 27 -5 -4 -9 -1 -9 4 0 6 -9 11 -20 11 -11 0
-20 4 -20 8 0 4 -9 8 -20 8 -11 0 -20 -4 -20 -8 0 -4 -7 -5 -15 -2 -8 4 -15 2
-15 -4 0 -5 -8 -9 -17 -8 -10 0 -17 -5 -15 -12 1 -8 -2 -11 -8 -7 -5 3 -13 -1
-16 -9 -3 -9 -10 -13 -15 -10 -5 3 -6 -1 -3 -9 3 -8 1 -18 -5 -21 -6 -4 -7
-14 -4 -23 5 -11 3 -14 -6 -8 -10 6 -11 3 -2 -14 7 -12 8 -21 2 -21 -5 0 -13
-10 -16 -21 -5 -16 -9 -18 -15 -9 -4 7 -13 9 -19 6 -10 -7 -16 6 -12 27 1 5
-9 17 -21 27 -13 11 -18 19 -11 20 7 0 10 7 7 15 -5 11 -2 13 10 9 10 -4 16
-2 14 4 -2 6 6 18 17 27 11 9 13 14 5 10 -8 -4 -5 2 8 13 12 11 22 25 22 32 0
6 5 8 10 5 6 -3 10 0 10 8 0 17 27 30 42 20 6 -3 9 -2 5 3 -3 5 12 17 34 26
21 9 39 12 39 8 0 -6 10 -6 24 0 17 6 26 5 30 -3 3 -8 5 -9 5 -1 1 8 12 9 36
4 22 -5 35 -4 35 2 0 6 6 5 15 -2 8 -7 15 -9 15 -5 0 4 7 2 15 -5 12 -10 15
-10 15 0 0 9 3 10 13 1 8 -6 17 -8 20 -4 4 3 7 0 7 -7 0 -9 5 -8 13 5 10 12
16 15 21 6 5 -7 13 -8 25 -2 28 15 78 0 66 -20 -4 -5 -1 -9 4 -9 16 0 23 -2
58 -16 21 -9 34 -10 38 -4 4 6 11 7 17 4 6 -4 8 -2 5 3 -7 11 20 28 36 24 5
-1 6 3 3 8 -3 5 1 12 9 15 8 3 15 9 14 13 -1 4 0 10 1 13 1 3 3 22 4 43 1 26
-3 36 -11 32 -7 -2 -13 3 -13 11 0 21 -27 47 -35 34 -4 -6 -12 -4 -22 5 -14
14 -16 14 -28 -1 -8 -11 -14 -13 -19 -6 -4 6 -13 9 -21 5 -10 -3 -15 1 -15 12
0 9 5 13 10 10 9 -5 15 23 11 47 0 5 5 7 12 5 6 -1 11 5 9 13 -2 8 -4 23 -5
33 -1 9 -6 16 -12 13 -7 -2 -10 8 -9 26 1 16 0 27 -3 24 -3 -3 -19 4 -34 15
-16 11 -29 17 -29 13 0 -3 -6 -2 -12 3 -15 11 -28 11 -45 0 -7 -5 -13 -5 -13
-2 0 3 -13 -2 -30 -12 -16 -9 -30 -23 -30 -31 0 -7 -4 -10 -10 -7 -5 3 -10 0
-10 -8 0 -8 -8 -21 -17 -28 -15 -12 -16 -12 -8 1 6 12 5 13 -6 3 -7 -7 -25
-13 -40 -13 -15 0 -31 -5 -35 -11 -3 -6 -15 -9 -25 -6 -11 3 -17 1 -14 -4 3
-4 -6 -11 -20 -15 -13 -3 -23 -9 -21 -13 3 -4 -5 -13 -17 -21 -21 -12 -21 -12
-7 5 14 18 13 18 -12 0 -14 -11 -25 -22 -25 -25 3 -9 -62 -70 -73 -70 -6 0 -9
-4 -5 -9 3 -6 -4 -15 -15 -21 -16 -9 -20 -8 -20 5 0 10 5 13 13 9 9 -6 9 -5 0
7 -8 10 -9 19 -2 26 6 6 6 18 0 34 -5 13 -10 17 -11 9 0 -10 -5 -7 -14 9 -12
21 -14 21 -20 6 -3 -10 -9 -15 -13 -11 -9 8 -64 -55 -57 -65 3 -5 1 -9 -4 -9
-13 0 -43 35 -36 42 3 4 0 16 -6 28 -7 13 -7 20 -2 16 6 -3 13 0 15 6 4 9 6 9
6 -1 1 -11 5 -10 17 5 8 10 13 13 9 7 -3 -7 -3 -13 0 -13 10 0 38 30 28 30 -4
0 -2 4 4 8 7 5 38 7 70 5 34 -1 63 3 72 10 12 10 13 9 6 -3 -6 -11 -3 -10 12
3 11 9 23 14 26 10 8 -7 54 14 75 35 8 7 18 9 24 6 6 -4 8 -2 4 4 -3 6 5 22
19 36 14 14 25 37 26 53 0 15 2 38 3 51 2 12 -1 22 -4 22 -4 0 -6 14 -4 31 2
16 0 28 -5 25 -9 -6 -26 22 -22 37 1 5 -3 6 -9 2 -5 -3 -13 0 -16 8 -3 8 -25
25 -50 37 -24 13 -44 27 -44 33 0 5 -6 5 -13 -2 -8 -6 -16 -9 -18 -6 -3 2 -22
5 -43 7 -36 2 -63 18 -31 18 10 0 13 5 9 12 -5 8 -2 9 9 5 9 -3 16 -3 15 1 -1
4 3 16 7 26 6 13 4 21 -3 24 -7 2 -10 7 -8 11 7 11 -37 6 -62 -8 -12 -6 -26
-10 -30 -7 -5 3 -16 -4 -26 -16 -14 -16 -20 -18 -26 -7 -5 7 -5 19 1 25 6 7 6
15 1 18 -5 3 -8 18 -6 33 1 15 -2 33 -8 40 -7 9 -7 13 2 13 9 0 10 3 1 14 -6
7 -12 25 -13 40 -1 14 -6 26 -11 26 -4 0 -5 5 -2 10 3 6 1 10 -5 10 -6 0 -8 5
-5 10 3 6 1 10 -5 10 -6 0 -8 4 -5 10 5 8 -8 31 -77 132 -6 9 -15 15 -20 12
-4 -3 -8 -1 -8 3 0 5 -11 9 -24 9 -14 0 -24 -5 -23 -10z m-326 -563 c0 -10 -4
-21 -9 -24 -5 -3 -10 -14 -12 -25 -2 -10 -5 -23 -7 -29 -7 -31 46 -102 73 -97
3 1 9 -5 12 -14 3 -8 2 -12 -3 -9 -5 3 -12 1 -16 -5 -4 -6 -12 -7 -18 -3 -7 4
-18 8 -26 10 -8 1 -17 7 -21 13 -6 9 -9 9 -15 -1 -6 -9 -10 -7 -16 9 -5 14
-17 22 -31 22 -19 0 -20 2 -8 10 8 5 10 10 5 10 -15 0 -17 41 -3 57 8 10 7 13
-3 13 -7 0 -3 7 9 16 12 8 20 19 17 24 -3 4 4 6 15 3 12 -3 20 0 20 7 0 7 7
10 15 6 8 -3 14 -2 14 2 -2 10 1 22 4 22 2 0 4 -8 4 -17z m734 -2 c0 10 2 10
6 2 2 -7 10 -13 16 -13 12 0 57 -50 54 -61 -1 -3 4 -13 10 -21 10 -12 8 -19
-10 -39 -12 -13 -20 -26 -17 -28 3 -3 -12 -10 -33 -16 -21 -6 -35 -13 -32 -17
3 -3 -10 -5 -29 -5 -20 1 -36 4 -36 7 0 12 48 48 56 42 4 -4 4 -1 0 6 -4 7 -1
15 8 18 9 3 16 10 16 16 0 5 -6 6 -12 2 -10 -6 -10 -4 -2 7 15 18 25 61 13 53
-5 -3 -9 2 -9 10 0 9 -4 16 -9 16 -5 0 -11 10 -14 23 -6 21 -6 21 8 3 11 -15
15 -16 16 -5z m-740 -1038 c-5 -10 -37 -42 -70 -72 -33 -30 -57 -59 -54 -65 3
-6 3 -8 -2 -4 -8 7 -75 -58 -75 -74 0 -5 -5 -6 -12 -2 -7 4 -8 3 -4 -5 8 -13
-18 -44 -29 -33 -4 4 -6 2 -5 -3 4 -19 0 -38 -6 -32 -4 4 -14 -8 -23 -26 -9
-17 -22 -31 -28 -30 -8 2 -10 -4 -6 -14 4 -11 3 -14 -5 -9 -8 5 -10 2 -6 -8 4
-11 -2 -19 -17 -25 -14 -6 -17 -10 -9 -11 12 0 11 -3 -2 -11 -10 -5 -18 -17
-18 -25 0 -8 -7 -17 -16 -21 -8 -3 -13 -12 -10 -19 3 -8 1 -14 -4 -14 -6 0
-10 -6 -10 -13 0 -7 -10 -24 -22 -37 -13 -14 -21 -26 -18 -27 3 -1 -2 -11 -11
-21 -8 -10 -14 -23 -11 -30 2 -7 -1 -12 -7 -12 -6 0 -11 -9 -11 -20 0 -11 -4
-20 -10 -20 -5 0 -10 -9 -10 -20 0 -10 -6 -23 -14 -27 -8 -4 -15 -12 -16 -18
-3 -28 -13 -55 -20 -55 -5 0 -7 -11 -4 -24 3 -16 -2 -28 -11 -34 -9 -4 -17
-19 -17 -33 -1 -13 -7 -32 -14 -43 -7 -10 -10 -25 -7 -34 5 -11 3 -13 -7 -7
-10 6 -12 4 -7 -8 3 -9 2 -19 -4 -22 -5 -4 -6 -11 -3 -17 4 -6 1 -14 -6 -18
-6 -4 -12 -24 -12 -44 0 -20 -4 -33 -9 -30 -10 6 -12 -7 -9 -46 1 -14 -1 -22
-5 -18 -4 4 -16 3 -25 -2 -13 -7 -20 -6 -24 6 -9 22 -7 36 2 30 5 -3 9 1 9 9
0 8 -4 12 -9 9 -4 -3 -5 2 -2 10 3 9 10 16 14 16 10 0 7 26 -3 36 -4 4 1 16
10 27 10 11 12 17 6 13 -19 -11 -15 5 5 20 9 7 12 14 5 14 -8 0 -8 7 0 29 6
17 15 27 21 24 5 -3 6 -1 2 6 -4 6 0 23 9 38 9 14 12 22 6 19 -7 -5 -9 -1 -5
8 3 9 10 16 16 16 5 0 6 5 3 10 -3 6 -2 10 4 10 6 0 8 7 5 15 -4 8 -1 15 5 15
6 0 10 3 10 8 -4 24 2 42 13 36 8 -5 9 0 6 14 -4 15 -2 22 9 22 8 0 12 4 8 9
-3 5 1 15 8 23 8 7 12 19 9 26 -2 6 1 12 8 12 6 0 8 5 5 10 -3 6 -2 10 4 10 6
0 13 11 17 25 3 14 10 25 15 25 5 0 5 7 2 17 -4 11 -3 14 5 9 11 -6 17 6 13
27 -1 4 6 10 14 13 8 3 13 10 10 14 -2 4 4 18 15 30 11 13 20 29 20 37 0 7 5
13 10 13 6 0 10 6 10 13 0 7 9 23 19 34 11 12 17 24 14 27 -4 3 1 6 11 6 9 0
15 4 12 9 -3 5 4 20 17 34 47 54 67 79 67 84 0 3 16 19 35 36 19 16 32 33 29
38 -3 5 2 6 11 3 9 -4 15 -2 13 3 -2 5 15 25 36 44 22 18 36 27 31 19 -8 -13
-6 -13 8 -1 9 7 14 18 10 24 -3 6 -1 7 6 3 6 -4 14 0 17 9 5 12 9 13 20 4 12
-10 13 -9 8 5 -5 14 5 21 22 14 3 -2 10 5 15 15 6 9 12 17 15 17 3 0 0 -8 -5
-17z m749 -5 c0 -4 7 -8 15 -8 8 0 15 -4 15 -8 0 -4 14 -16 30 -26 40 -23 116
-98 112 -109 -2 -5 4 -7 13 -4 8 4 15 3 15 -2 0 -5 22 -31 48 -59 26 -27 46
-56 44 -62 -3 -7 0 -10 5 -7 6 4 18 -9 29 -28 10 -18 22 -31 28 -28 5 4 7 0 4
-9 -4 -8 2 -21 13 -29 10 -7 19 -22 19 -32 0 -10 5 -15 10 -12 6 3 10 -1 10
-9 0 -8 7 -22 16 -30 8 -9 13 -20 10 -25 -3 -5 1 -12 10 -15 8 -3 12 -10 9
-16 -3 -5 -2 -10 3 -10 6 0 18 -20 28 -44 10 -24 21 -43 24 -41 3 2 10 -8 17
-21 6 -13 7 -22 2 -18 -5 3 -9 1 -9 -4 0 -6 7 -12 15 -16 8 -3 15 -12 15 -21
0 -8 5 -15 11 -15 5 0 7 -5 4 -10 -3 -6 3 -22 14 -36 11 -15 18 -30 15 -35 -3
-5 2 -17 11 -26 9 -9 14 -24 12 -35 -3 -10 -1 -16 4 -12 8 4 11 -9 8 -32 0 -4
4 -10 10 -13 6 -4 13 -18 15 -31 2 -14 5 -27 6 -30 2 -3 2 -8 1 -12 0 -5 4 -8
10 -8 6 0 9 -6 6 -12 -2 -7 -1 -22 3 -33 4 -11 3 -28 -1 -37 -8 -14 -6 -16 8
-11 10 3 15 3 11 -1 -4 -5 -3 -19 2 -32 6 -15 6 -24 0 -24 -5 0 -7 -9 -5 -21
3 -17 0 -20 -23 -17 -18 2 -28 9 -29 23 -5 55 -14 89 -25 103 -8 10 -9 13 -1
9 7 -5 9 0 6 13 -3 11 -10 17 -15 14 -5 -3 -9 0 -7 7 4 36 -2 60 -13 53 -8 -5
-7 0 2 11 9 11 10 16 3 11 -7 -4 -13 -2 -13 3 0 21 -2 26 -12 38 -6 7 -8 20
-4 28 3 9 0 15 -9 15 -9 0 -12 6 -8 17 5 11 3 14 -6 8 -10 -6 -11 -3 -1 15 7
12 8 20 2 16 -12 -7 -22 14 -36 74 -2 8 -9 14 -15 13 -6 -2 -10 0 -10 5 3 18
-2 32 -17 46 -12 12 -12 16 -2 16 9 1 9 4 -3 13 -13 10 -32 46 -29 55 0 2 -9
12 -22 23 -13 11 -16 17 -8 13 10 -5 9 0 -4 14 -11 12 -15 22 -11 22 4 0 -2 9
-15 20 -13 11 -19 20 -15 20 5 0 0 7 -11 16 -10 8 -12 13 -4 9 9 -4 7 0 -4 9
-10 8 -15 20 -10 27 4 7 3 10 -3 6 -6 -4 -18 9 -29 28 -10 18 -22 31 -27 28
-6 -3 -7 -2 -4 4 3 5 -9 26 -28 47 -19 21 -33 44 -32 50 1 6 -4 10 -10 9 -12
-3 -17 9 -14 29 0 5 -2 7 -7 5 -4 -1 -8 1 -10 5 -10 23 -118 125 -127 120 -5
-3 -4 1 3 10 11 14 10 16 -9 11 -15 -4 -20 -3 -15 5 4 7 2 12 -4 12 -11 0 -40
24 -40 33 0 2 7 4 15 4 8 0 15 -4 15 -9z m-1447 -33 c-3 -9 -8 -14 -10 -11 -3
3 -2 9 2 15 9 16 15 13 8 -4z m305 -30 c1 -18 -3 -21 -28 -17 -18 3 -30 0 -30
-7 0 -6 -6 -10 -12 -8 -7 1 -12 -4 -10 -11 1 -8 -2 -11 -7 -8 -5 3 -11 -8 -13
-24 -3 -16 0 -32 6 -34 6 -3 -6 -4 -27 -2 -26 2 -40 -1 -44 -10 -3 -8 -10 -11
-17 -7 -6 3 -8 3 -4 -2 4 -4 3 -15 -2 -25 -5 -10 -6 -20 -3 -24 14 -13 10 -34
-5 -32 -28 5 -72 -23 -65 -41 4 -11 2 -14 -5 -9 -13 8 -12 -28 1 -40 10 -11 8
-24 -4 -24 -5 0 -7 5 -3 12 5 7 3 8 -7 2 -8 -4 -20 -9 -26 -10 -14 -2 -48 -34
-37 -34 4 0 -1 -7 -12 -16 -10 -8 -13 -12 -5 -8 9 4 12 2 9 -7 -3 -8 1 -20 9
-27 7 -8 10 -18 7 -24 -4 -7 -9 -6 -14 2 -5 8 -10 9 -14 2 -4 -6 -13 -9 -21
-6 -18 7 -51 -54 -37 -68 6 -6 8 -17 5 -26 -5 -11 -2 -13 8 -8 8 4 5 1 -5 -8
-10 -8 -23 -13 -28 -10 -13 8 -41 -25 -44 -54 -2 -16 5 -32 17 -43 19 -16 19
-17 -8 -24 -16 -4 -30 -7 -33 -7 -10 -2 -29 -34 -30 -50 0 -32 22 -67 39 -61
12 4 13 3 6 -5 -6 -7 -23 -13 -37 -14 -14 -1 -24 -7 -22 -13 3 -6 -4 -17 -15
-24 -16 -12 -17 -18 -8 -35 17 -29 34 -46 40 -40 3 3 3 -4 0 -16 -4 -16 -8
-18 -14 -8 -7 10 -9 10 -9 1 0 -7 -5 -12 -11 -10 -6 1 -17 -15 -25 -35 -13
-38 -13 -38 23 -65 l35 -27 -26 -9 c-14 -5 -24 -12 -22 -16 3 -4 -11 -7 -30
-8 -19 0 -34 4 -34 9 0 5 -4 7 -9 3 -5 -3 -17 2 -25 11 -9 8 -16 11 -16 5 0
-6 -7 -8 -15 -5 -8 4 -12 10 -9 15 3 5 -2 6 -10 3 -9 -3 -16 -2 -16 3 0 5 -6
10 -13 10 -14 0 -77 41 -89 58 -4 5 -4 13 -2 17 3 4 0 8 -7 8 -8 0 -8 4 -1 13
6 7 7 18 2 26 -4 8 -6 20 -3 28 3 7 -2 13 -11 13 -9 0 -16 4 -16 9 0 5 -18 11
-39 13 -22 2 -37 0 -35 -3 7 -12 -29 -20 -40 -9 -7 7 -5 10 7 10 9 0 16 3 16
8 -3 20 2 32 13 26 7 -4 8 -3 4 4 -4 6 2 20 13 31 11 11 17 22 13 25 -3 4 3
12 13 20 10 7 15 18 11 24 -4 7 -1 12 8 12 9 0 16 6 16 13 0 20 35 58 45 49 5
-4 5 -2 2 4 -4 7 16 35 43 63 27 28 47 51 45 51 -3 0 7 13 21 30 15 16 31 27
37 23 6 -3 7 -2 4 4 -3 5 5 20 19 34 13 13 32 32 42 42 9 9 22 17 30 17 7 0
10 5 7 10 -3 6 -2 10 4 10 5 0 33 23 61 50 50 49 69 62 54 38 -4 -7 -3 -8 4
-4 7 4 12 14 12 22 0 8 4 13 9 12 5 -2 20 10 35 25 14 15 31 25 36 22 6 -3 10
1 10 9 0 9 5 16 11 16 7 0 20 9 30 21 9 11 20 20 23 20 20 -3 26 0 21 9 -3 6
1 10 9 10 9 0 16 5 16 12 0 6 3 9 6 5 4 -3 13 1 21 9 8 8 19 12 24 8 5 -3 8 0
7 8 -2 7 7 14 20 16 12 2 20 8 17 13 -4 5 1 9 9 9 9 0 16 5 16 11 0 5 5 7 10
4 6 -3 10 -2 10 4 0 6 7 7 17 4 11 -4 14 -3 9 5 -4 7 -2 12 5 12 6 0 18 8 25
18 9 11 13 13 14 4 0 -7 5 -10 10 -7 6 4 8 10 6 14 -3 3 3 7 13 7 10 0 18 -9
19 -21z m458 13 c3 -4 0 -16 -8 -27 -8 -12 -17 -19 -19 -16 -3 2 -13 -9 -24
-26 -11 -16 -26 -27 -33 -24 -7 3 -11 1 -7 -4 3 -5 -11 -25 -30 -45 -19 -20
-35 -41 -35 -46 0 -6 -4 -10 -10 -10 -5 0 -10 -7 -10 -15 0 -8 -4 -15 -9 -15
-5 0 -15 -16 -22 -34 -7 -19 -16 -33 -21 -30 -4 3 -8 -7 -8 -21 0 -16 -4 -24
-11 -19 -6 4 -9 -1 -7 -13 2 -11 -2 -27 -9 -35 -7 -8 -13 -29 -15 -46 -1 -18
-6 -32 -11 -32 -5 0 -7 -7 -4 -15 4 -8 3 -16 -2 -19 -8 -5 -8 -67 1 -82 3 -5
4 -21 3 -36 -1 -16 2 -28 7 -28 5 0 6 -4 3 -10 -3 -5 -1 -10 4 -10 6 0 10 -3
9 -7 -5 -16 21 -73 33 -73 7 0 9 -3 6 -7 -4 -3 1 -12 11 -20 11 -9 11 -12 2
-7 -19 8 70 -77 96 -93 11 -6 18 -16 16 -23 -1 -6 1 -9 6 -6 10 6 21 -2 46
-31 18 -22 18 -22 -5 -18 -13 3 -25 9 -27 14 -2 5 -11 7 -20 5 -9 -3 -29 7
-44 21 -16 14 -28 23 -28 21 0 -5 -10 2 -59 44 -11 9 -18 28 -17 48 1 17 -2
32 -7 32 -4 0 -6 3 -6 8 3 19 -2 33 -11 27 -5 -3 -10 1 -10 11 0 14 -2 15 -17
3 -11 -10 -14 -10 -9 -1 13 21 -37 14 -65 -11 -29 -25 -35 -84 -10 -103 12
-10 11 -15 -10 -36 -13 -14 -25 -30 -26 -36 -4 -17 -114 -123 -123 -117 -4 3
-10 -2 -13 -10 -4 -8 -24 -23 -46 -33 -33 -16 -41 -17 -45 -5 -3 8 -1 11 4 8
6 -3 10 3 10 15 0 12 7 35 16 52 9 16 11 27 5 23 -8 -4 -7 2 1 19 6 14 14 26
18 26 4 0 6 10 5 21 -1 12 7 38 17 58 10 20 17 40 14 46 -4 11 19 37 26 29 3
-2 2 10 0 27 -3 22 -1 30 7 25 11 -7 15 5 12 32 -1 6 3 12 9 12 6 0 8 5 5 10
-3 6 -1 10 5 10 6 0 8 5 5 10 -3 6 -1 10 5 10 6 0 8 5 5 10 -3 6 1 13 9 16 9
3 13 10 10 15 -3 5 0 9 5 9 6 0 10 3 9 8 -2 12 15 47 28 55 7 4 10 15 7 24 -4
11 -3 14 5 9 8 -5 12 0 12 13 0 12 5 21 10 21 6 0 10 7 10 16 0 9 5 12 12 8 8
-5 9 -2 5 9 -4 11 1 20 14 27 11 6 17 15 14 20 -3 5 6 20 19 33 14 14 22 28
19 31 -4 3 -1 6 6 6 7 0 9 5 6 10 -3 6 -1 10 5 10 6 0 8 5 5 10 -4 6 -1 9 5 8
7 -2 21 13 31 32 11 19 24 34 29 33 6 -2 10 2 10 7 0 6 11 21 25 34 13 13 22
26 18 29 -3 4 1 7 10 7 11 0 14 5 10 15 -3 9 -1 15 5 13 5 -2 10 1 11 5 1 12
28 37 40 37 6 0 11 5 11 12 0 28 48 54 66 36z m628 -5 c3 -8 10 -11 16 -8 5 3
10 0 10 -8 0 -8 7 -18 16 -21 8 -3 12 -10 9 -16 -3 -5 -1 -10 6 -10 12 0 89
-80 89 -92 0 -4 12 -21 28 -37 39 -43 47 -54 55 -74 4 -11 12 -15 18 -11 8 4
9 3 5 -4 -4 -7 -3 -12 3 -12 5 0 13 -10 16 -22 4 -13 17 -31 29 -41 11 -10 14
-16 6 -12 -8 4 -6 -2 5 -12 11 -10 21 -25 23 -32 1 -7 9 -20 17 -28 8 -8 15
-21 15 -29 0 -9 5 -12 12 -8 6 4 8 3 5 -3 -4 -6 3 -23 15 -39 13 -16 16 -25 8
-20 -8 4 -7 1 3 -7 9 -8 17 -22 17 -31 0 -9 5 -16 10 -16 6 0 10 -9 10 -20 0
-11 5 -20 10 -20 6 0 10 -5 10 -11 0 -6 10 -25 22 -42 12 -17 16 -27 9 -23
-11 7 -10 4 0 -15 7 -13 14 -27 15 -31 1 -5 3 -11 4 -15 1 -5 2 -11 1 -15 0
-5 4 -8 11 -8 6 0 9 -3 5 -6 -3 -4 0 -19 9 -35 8 -16 11 -29 7 -29 -4 0 -2 -5
5 -12 7 -7 12 -20 12 -30 0 -10 5 -18 11 -18 5 0 7 -4 4 -10 -3 -5 -1 -19 6
-31 8 -17 8 -20 -1 -14 -7 4 -4 -4 5 -19 10 -14 14 -26 10 -26 -4 0 -2 -7 5
-15 20 -24 3 -30 -33 -11 -65 35 -81 45 -89 60 -5 9 -13 14 -17 12 -4 -3 -14
6 -21 19 -7 14 -20 25 -29 26 -9 0 -11 3 -4 5 6 3 -5 21 -28 44 -39 38 -49 60
-28 60 5 0 7 5 4 10 -3 6 -2 10 3 10 13 0 22 39 11 46 -5 3 -7 10 -4 15 4 5
-1 9 -10 9 -9 0 -14 3 -12 8 3 4 -7 16 -21 26 -14 11 -22 14 -17 7 5 -10 2
-11 -13 -7 -15 5 -28 0 -44 -16 -13 -13 -27 -22 -31 -20 -5 1 -6 -2 -3 -7 4
-5 1 -13 -5 -17 -8 -5 -8 -9 1 -14 9 -6 9 -13 0 -31 -14 -26 -65 -79 -77 -79
-5 -1 -18 -10 -30 -20 -13 -11 -23 -17 -23 -12 0 4 -5 0 -10 -8 -8 -13 -10
-13 -10 -1 0 12 -3 11 -12 -2 -9 -12 -17 -14 -28 -7 -13 8 -11 12 9 27 14 9
34 26 45 37 12 12 24 20 28 19 5 -2 7 3 5 10 -1 6 6 11 16 11 15 -2 16 1 5 14
-7 9 -8 13 -2 9 12 -7 59 40 76 78 6 14 15 25 20 25 5 0 6 5 3 10 -3 6 -1 10
5 10 6 0 8 5 5 10 -3 6 -2 10 3 10 4 0 8 15 7 33 0 17 3 38 8 45 5 6 6 12 2
12 -4 0 -2 6 4 14 7 8 8 17 3 20 -5 3 -9 24 -8 46 1 23 -1 43 -6 46 -4 3 -5
11 -1 19 3 8 1 15 -5 15 -5 0 -9 13 -8 29 1 16 -3 29 -8 28 -6 -1 -10 4 -8 11
1 6 -3 12 -9 12 -5 0 -8 4 -4 9 3 5 1 12 -5 16 -6 4 -8 10 -5 15 3 4 -2 11
-11 14 -8 3 -13 10 -10 15 4 5 1 11 -4 13 -6 2 -13 12 -14 23 -2 11 -9 19 -15
18 -6 -2 -11 2 -11 9 0 6 -10 23 -22 36 -13 14 -16 22 -8 18 8 -4 -2 7 -22 24
-21 18 -35 36 -32 41 3 5 0 9 -6 9 -7 0 -24 13 -40 30 -15 16 -30 26 -34 23
-3 -3 -6 3 -6 14 0 22 26 27 34 6z m451 7 c-3 -5 2 -10 13 -10 10 0 22 -3 26
-7 4 -5 11 -8 14 -9 18 -2 41 -17 37 -23 -2 -4 11 -14 30 -21 19 -8 35 -17 35
-22 0 -4 9 -8 20 -8 11 0 20 -7 20 -15 0 -8 7 -15 15 -15 8 0 15 -5 15 -11 0
-5 5 -7 10 -4 6 3 13 -1 16 -9 3 -9 12 -16 19 -16 7 0 15 -7 19 -15 3 -8 13
-15 21 -15 9 0 13 -4 10 -10 -3 -5 0 -7 8 -4 7 2 22 -7 33 -21 10 -14 23 -25
28 -25 5 0 17 -10 27 -22 11 -11 19 -17 19 -13 0 4 14 -6 30 -24 17 -17 35
-31 40 -31 6 0 10 -7 10 -16 0 -8 4 -12 10 -9 12 7 140 -118 140 -137 0 -9 3
-9 10 2 7 11 10 12 10 2 0 -18 26 -43 35 -34 5 4 5 2 1 -5 -3 -6 4 -19 16 -27
12 -9 19 -16 15 -16 -4 0 7 -14 25 -31 18 -17 26 -27 18 -23 -8 4 0 -7 18 -24
17 -18 32 -37 32 -42 0 -6 8 -10 18 -10 14 0 15 -2 2 -10 -14 -9 -7 -14 13
-11 5 1 6 -3 3 -8 -3 -5 0 -14 8 -20 7 -6 21 -29 31 -51 10 -22 22 -37 26 -34
5 3 6 -1 3 -9 -3 -8 0 -18 5 -22 6 -3 9 -11 6 -16 -4 -5 -2 -9 4 -9 6 0 14
-15 19 -32 5 -18 14 -32 21 -30 9 2 9 -3 2 -17 -8 -14 -7 -22 4 -31 8 -7 13
-16 10 -20 -3 -5 -1 -12 5 -15 8 -5 7 -11 -1 -21 -11 -13 -6 -18 15 -15 5 1 6
-10 4 -24 -3 -14 -2 -25 3 -25 4 0 6 -8 4 -17 -1 -10 2 -24 8 -30 5 -7 6 -13
2 -13 -4 0 -2 -7 5 -15 10 -13 9 -15 -9 -15 -11 0 -21 4 -21 10 0 5 -6 7 -12
5 -7 -3 -26 6 -42 20 -16 14 -33 25 -39 25 -5 0 -3 8 4 17 8 9 9 14 3 10 -7
-4 -14 2 -18 16 -11 43 -6 65 24 97 17 18 30 35 30 40 0 26 -24 69 -42 73 -13
4 -17 10 -12 18 5 9 2 10 -9 6 -10 -4 -17 -1 -17 6 0 7 -4 6 -10 -3 -5 -8 -13
-15 -17 -15 -19 0 -50 -31 -47 -47 1 -10 -2 -18 -7 -18 -5 0 -4 -11 1 -25 8
-21 5 -28 -23 -49 -46 -34 -116 -68 -127 -61 -6 4 -13 0 -16 -8 -3 -8 -17 -14
-32 -14 -15 0 -35 -4 -46 -8 -10 -4 -21 -4 -25 2 -10 17 -44 29 -78 28 -25 -1
-30 2 -21 12 6 8 15 10 22 4 17 -13 48 -9 66 9 20 20 31 58 19 65 -4 3 -5 13
-2 22 4 10 2 14 -4 10 -6 -4 -13 -3 -15 2 -4 12 -54 22 -74 14 -7 -3 -11 -10
-7 -17 4 -6 -1 -5 -10 3 -23 18 -12 31 23 27 17 -2 35 3 41 10 6 8 15 12 18 9
4 -2 8 1 8 8 0 7 2 17 3 22 5 22 -1 43 -19 64 -10 12 -21 17 -23 12 -2 -7 -9
-7 -18 -1 -12 8 -11 12 6 32 24 27 29 67 8 75 -7 3 -12 9 -9 13 3 5 1 11 -5
15 -5 3 -10 0 -10 -7 0 -10 -2 -10 -9 1 -5 7 -13 11 -19 7 -6 -3 -13 -2 -16 3
-4 5 2 12 12 15 14 5 18 16 17 49 0 27 -5 44 -12 46 -7 1 -22 2 -33 3 -11 1
-20 6 -20 11 0 4 -4 6 -9 2 -5 -3 -13 0 -17 6 -4 8 -3 9 4 5 7 -4 12 -1 12 9
0 9 4 14 9 11 9 -6 8 17 -4 52 -7 22 -41 37 -80 34 -19 -1 -19 0 -2 12 26 20
20 84 -8 92 -11 4 -23 11 -26 16 -3 5 -14 1 -24 -8 -17 -17 -17 -17 -10 5 5
17 4 21 -5 16 -7 -4 -4 4 5 19 11 17 13 26 6 26 -7 0 -10 4 -7 9 9 14 -37 37
-69 34 -18 -1 -25 1 -17 6 7 4 11 22 10 40 -3 37 -41 69 -62 52 -10 -8 -16 -8
-24 1 -14 18 -16 30 -3 37 6 4 -2 20 -19 39 -25 29 -32 32 -49 22 -12 -6 -22
-8 -22 -5 -5 20 -3 31 6 37 14 11 17 10 10 -2z m-1955 -14 c0 -3 -4 -8 -10
-11 -5 -3 -10 -1 -10 4 0 6 5 11 10 11 6 0 10 -2 10 -4z m2364 -11 c-4 -8 -10
-12 -15 -9 -11 6 -2 24 11 24 5 0 7 -7 4 -15z m-2468 -52 c0 -13 -4 -19 -10
-15 -6 4 -15 7 -21 7 -5 0 -11 3 -12 8 -7 18 -1 25 20 23 17 -1 23 -7 23 -23z
m1186 4 c6 -11 5 -17 -2 -17 -6 0 -8 -5 -5 -10 4 -6 1 -18 -7 -27 -9 -12 -10
-15 0 -9 16 10 -44 -79 -74 -109 -12 -12 -25 -20 -28 -17 -3 3 -6 0 -6 -6 0
-15 -47 -61 -55 -53 -4 3 -5 1 -4 -4 4 -15 -11 -55 -22 -55 -5 0 -8 -3 -8 -7
3 -18 -2 -34 -8 -30 -10 6 -9 -75 0 -90 4 -6 3 -14 -3 -18 -5 -3 0 -27 14 -60
14 -29 21 -56 18 -60 -4 -4 -2 -5 3 -3 6 1 11 -1 12 -5 1 -5 12 -18 25 -29 13
-11 22 -24 20 -29 -1 -5 3 -8 9 -7 6 2 16 -6 22 -17 7 -11 17 -23 24 -28 6 -4
10 -19 7 -33 -3 -15 -1 -23 5 -20 5 4 12 2 15 -3 9 -13 -19 -8 -38 8 -9 7 -13
17 -10 22 3 5 -2 9 -11 9 -9 0 -25 9 -37 20 -12 11 -34 26 -50 32 -16 7 -31
21 -34 30 -3 10 -10 18 -16 18 -6 0 -9 3 -6 6 4 3 0 17 -8 32 -9 17 -10 28 -3
31 5 1 2 10 -8 18 -10 8 -11 11 -3 7 12 -6 13 -4 3 7 -8 7 -13 39 -13 72 0 44
3 56 13 51 8 -5 8 -2 -2 9 -7 9 -9 17 -4 17 5 0 10 12 11 27 1 14 13 50 26 79
13 29 21 56 18 60 -4 4 -1 4 6 0 11 -6 17 5 13 27 0 4 2 6 7 5 4 -2 8 1 9 5 1
5 11 17 22 26 11 10 18 21 14 25 -4 4 3 9 15 13 13 3 21 11 19 17 -2 6 10 21
27 34 16 12 26 22 20 23 -5 0 1 4 14 10 13 5 21 13 18 18 -4 5 1 8 10 7 9 -1
20 -10 26 -19z m238 -11 c5 -11 9 -17 9 -13 1 12 71 -61 71 -73 0 -6 5 -8 12
-4 8 5 9 2 5 -9 -3 -9 -1 -19 5 -23 7 -5 8 -2 4 7 -4 8 -1 5 8 -5 8 -10 13
-23 10 -27 -3 -5 1 -9 10 -9 8 0 17 -13 21 -30 4 -18 11 -27 17 -24 7 5 9 0 6
-14 -4 -12 -2 -20 3 -16 5 3 10 -1 11 -8 2 -23 5 -32 15 -58 6 -14 8 -31 6
-37 -3 -7 0 -13 6 -13 9 0 9 -5 1 -20 -6 -11 -7 -20 -2 -20 9 0 7 -64 -3 -80
-3 -5 -1 -11 4 -14 5 -3 7 -15 4 -26 -3 -11 -9 -17 -14 -14 -5 3 -6 -3 -2 -12
4 -11 3 -15 -4 -11 -7 5 -9 0 -6 -13 3 -12 -1 -22 -11 -26 -9 -3 -14 -10 -11
-14 7 -11 -42 -49 -72 -56 -12 -4 -20 -10 -17 -15 3 -5 0 -9 -6 -9 -6 0 -22
-12 -36 -27 -14 -15 -31 -28 -39 -29 -23 -3 22 75 68 119 22 20 36 37 31 37
-5 0 -1 5 9 11 9 6 15 14 12 20 -4 5 -1 9 4 9 6 0 11 7 11 15 0 8 4 15 8 15 9
0 12 11 15 60 1 21 6 29 16 25 11 -4 11 -2 3 8 -6 7 -10 23 -7 36 2 14 0 19
-7 15 -7 -5 -9 -2 -5 9 3 8 -2 31 -13 51 -10 20 -13 33 -6 30 6 -3 2 3 -10 13
-12 10 -26 29 -33 41 -7 13 -17 19 -23 16 -7 -4 -8 -3 -4 4 4 7 2 12 -4 12 -6
0 -8 5 -5 10 3 6 0 10 -8 10 -14 0 -32 27 -29 42 1 4 -5 5 -13 2 -14 -6 -20 6
-16 29 1 5 -3 6 -9 2 -5 -3 -10 1 -10 10 0 10 -5 13 -12 9 -7 -5 -9 0 -6 14 3
12 2 22 -2 24 -9 3 -21 64 -13 71 10 11 45 -7 53 -27z m1175 14 c-3 -5 0 -10
7 -12 7 -3 2 -7 -10 -10 -12 -4 -20 -3 -17 2 3 4 -2 11 -11 14 -22 8 -8 25 16
19 11 -3 18 -9 15 -13z m-2695 -32 c0 -4 -8 -8 -17 -9 -10 0 -13 -3 -7 -5 7
-3 10 -14 7 -24 -6 -22 -18 -26 -29 -9 -4 7 -10 7 -16 1 -6 -6 -16 -8 -23 -6
-16 7 -38 -21 -41 -54 -3 -35 -2 -34 -16 -25 -18 11 -31 11 -45 0 -9 -6 -13
-5 -13 2 0 8 -4 8 -14 -1 -7 -7 -11 -19 -8 -27 4 -10 1 -12 -8 -6 -10 6 -12 1
-6 -26 5 -26 4 -31 -6 -21 -14 14 -32 16 -23 2 4 -7 -2 -7 -19 0 -22 8 -27 6
-37 -13 -7 -12 -17 -25 -23 -29 -8 -6 -8 -8 0 -8 6 0 10 -10 9 -22 -2 -14 -8
-22 -16 -20 -43 11 -60 12 -54 2 3 -5 0 -10 -8 -10 -15 0 -32 -28 -28 -45 2
-5 4 -21 6 -35 2 -20 1 -21 -9 -9 -14 18 -52 13 -77 -12 -10 -10 -17 -19 -14
-19 3 0 1 -10 -6 -21 -7 -13 -7 -19 -1 -15 11 7 28 -32 18 -41 -3 -4 -6 2 -6
12 0 14 -3 15 -15 5 -11 -9 -15 -9 -15 -1 0 8 -4 8 -15 -1 -45 -37 -54 -51
-45 -68 5 -10 6 -20 3 -24 -3 -3 -2 -6 4 -6 5 0 10 -6 10 -14 0 -10 -7 -12
-26 -6 -25 7 -54 -9 -57 -32 -1 -5 -3 -11 -4 -15 -1 -5 -2 -11 -1 -15 0 -5 -4
-8 -10 -8 -5 0 -7 -5 -4 -10 4 -6 11 -7 17 -4 6 4 8 2 4 -4 -3 -6 -2 -13 4
-17 5 -3 10 -12 10 -18 0 -8 -3 -8 -9 1 -11 18 -22 17 -33 -2 -5 -9 -15 -13
-21 -10 -7 4 -9 4 -5 -1 4 -4 1 -17 -7 -29 -18 -25 -19 -40 -3 -30 7 4 8 3 4
-4 -8 -13 29 -54 40 -44 4 4 4 1 0 -6 -4 -7 -12 -10 -17 -6 -5 3 -17 0 -26 -8
-14 -11 -16 -11 -9 2 5 8 -2 4 -16 -10 -25 -25 -35 -60 -17 -60 6 0 7 -4 4
-10 -3 -5 -2 -10 3 -10 5 0 17 -12 27 -26 9 -15 12 -23 6 -19 -7 4 -19 1 -28
-7 -14 -11 -16 -11 -8 2 8 13 6 13 -8 1 -9 -7 -15 -17 -12 -21 3 -5 0 -12 -6
-16 -7 -4 -9 -3 -6 3 4 6 0 13 -8 16 -10 4 -12 1 -9 -11 4 -12 2 -11 -7 3 -7
11 -20 25 -28 31 -9 7 -23 28 -31 48 -7 20 -18 36 -22 36 -5 0 -6 5 -3 10 3 6
-3 22 -14 36 -11 15 -18 30 -15 35 3 5 0 9 -5 9 -6 0 -11 5 -11 12 0 6 -8 20
-17 31 -13 15 -14 19 -3 13 8 -4 7 -1 -3 7 -10 8 -16 21 -15 28 4 18 50 65 61
61 5 -1 6 2 3 7 -3 5 6 19 21 31 16 12 21 18 13 14 -9 -4 -7 1 5 13 11 12 24
20 30 19 5 0 9 6 10 14 0 8 8 14 17 14 9 -1 14 4 12 11 -3 7 0 16 7 21 8 5 10
3 5 -7 -4 -8 0 -5 8 5 9 11 16 24 16 29 0 4 5 5 10 2 6 -3 10 -1 10 5 0 6 4 8
10 5 6 -3 7 1 4 9 -4 10 -1 16 10 16 8 0 20 9 26 20 6 11 16 17 22 14 6 -4 8
-3 4 4 -3 6 8 21 26 34 44 30 65 48 99 80 16 15 29 24 29 20 0 -4 7 2 15 12 8
11 15 16 15 12 0 -4 11 4 24 18 13 15 29 26 35 26 7 0 9 5 5 12 -4 6 -3 8 4 4
6 -3 18 1 26 10 9 8 16 12 16 7 0 -4 7 1 15 11 8 11 18 17 21 13 3 -3 15 3 27
13 11 11 24 17 29 14 4 -3 8 -1 8 3 0 10 90 58 103 55 4 -1 7 3 7 9 0 6 6 9
14 6 8 -3 17 1 20 9 3 8 14 14 23 12 11 -2 17 2 15 11 -2 8 3 11 13 8 8 -4 15
-2 15 4 0 6 5 7 10 4 6 -3 10 -1 10 6 0 7 3 9 6 6 4 -3 15 0 25 7 21 14 49 17
49 4z m2775 2 c-3 -6 1 -7 9 -4 9 3 16 1 16 -6 0 -6 4 -9 9 -5 5 3 13 0 16 -6
4 -5 13 -8 20 -5 16 6 38 -17 28 -28 -4 -4 0 -4 10 0 11 4 19 0 23 -11 4 -10
9 -13 13 -6 5 7 19 2 41 -14 18 -13 37 -22 41 -19 5 3 9 0 9 -5 0 -6 6 -11 14
-11 7 0 19 -7 26 -15 7 -9 19 -14 25 -11 7 2 18 -4 25 -14 8 -11 17 -17 22
-14 4 3 8 0 8 -5 0 -6 8 -11 18 -11 9 0 32 -14 51 -30 18 -16 38 -27 44 -23 6
3 7 1 3 -5 -4 -7 -3 -12 1 -12 8 0 37 -24 106 -84 9 -9 17 -13 17 -10 0 4 12
-5 26 -20 15 -14 31 -26 36 -26 5 0 7 -4 4 -9 -3 -4 4 -17 17 -27 21 -19 21
-19 8 1 -8 11 0 5 18 -12 18 -18 37 -33 42 -33 6 0 8 -3 6 -7 -3 -5 1 -14 9
-21 8 -7 14 -10 14 -6 0 3 7 1 15 -6 8 -7 12 -16 9 -21 -3 -5 -1 -9 4 -9 18 0
152 -144 152 -163 0 -4 4 -6 9 -3 5 3 12 -2 15 -11 4 -9 1 -20 -6 -25 -7 -4
-9 -8 -4 -8 5 0 2 -8 -7 -18 -10 -10 -15 -21 -12 -24 3 -3 -1 -11 -10 -18 -8
-7 -15 -20 -15 -30 0 -10 -7 -21 -16 -24 -9 -3 -14 -13 -11 -20 3 -8 -1 -20
-8 -26 -8 -7 -12 -16 -9 -21 3 -5 0 -9 -5 -9 -6 0 -11 -9 -11 -21 0 -11 -4
-17 -10 -14 -5 3 -10 3 -10 -2 0 -16 -45 -60 -58 -56 -6 3 -10 8 -7 13 6 10
-51 31 -61 22 -5 -4 -3 0 4 9 6 9 9 18 6 21 -3 3 -1 9 5 13 6 3 11 1 11 -6 0
-25 13 1 20 41 5 25 3 43 -3 47 -6 4 -7 1 -3 -8 4 -8 1 -6 -8 5 -8 10 -22 16
-30 13 -9 -4 -18 -2 -21 4 -4 5 -12 6 -18 3 -7 -4 -1 5 13 18 14 14 29 23 33
21 5 -3 5 3 -1 13 -5 11 -7 25 -5 32 6 15 -31 54 -41 45 -3 -4 -6 -1 -6 6 0 7
-4 10 -9 6 -5 -3 -12 -1 -16 5 -3 5 -1 10 5 10 7 0 10 17 9 43 -2 38 -6 45
-31 55 -15 6 -26 6 -22 1 8 -14 -6 -11 -22 5 -9 10 -10 17 -4 21 6 4 8 11 5
16 -4 5 -1 9 6 9 10 0 10 3 1 12 -7 7 -12 20 -12 30 0 11 -5 15 -14 12 -7 -3
-16 3 -20 13 -6 15 -8 15 -17 3 -8 -13 -10 -13 -19 0 -5 8 -9 22 -8 30 3 26
-13 60 -28 60 -8 0 -13 4 -10 9 4 5 -2 8 -11 6 -10 -2 -24 -4 -31 -4 -7 -1
-10 -5 -7 -11 3 -6 -1 -7 -9 -4 -9 3 -13 11 -9 18 10 15 10 75 1 69 -5 -2 -8
1 -8 6 0 6 -8 11 -18 11 -10 0 -23 5 -30 12 -8 8 -12 8 -12 1 0 -6 -7 -13 -15
-17 -11 -4 -14 2 -12 27 2 18 -2 37 -8 43 -17 18 -52 34 -59 27 -15 -15 -34
-10 -31 8 2 10 -1 19 -6 19 -6 0 -8 4 -5 9 3 4 -3 19 -14 31 -13 15 -20 18
-20 9 0 -8 -3 -10 -8 -4 -10 14 -42 15 -43 1 0 -6 -4 -2 -8 9 -5 12 -4 26 2
35 6 8 7 12 3 8 -5 -4 -20 5 -34 20 -13 15 -21 20 -16 12 6 -12 5 -13 -7 -3
-12 10 -20 9 -37 -2 -22 -16 -36 -7 -26 18 3 8 -2 17 -11 21 -19 7 -11 26 11
26 8 0 12 -4 9 -10z m-2521 -36 c3 -8 2 -12 -4 -9 -6 3 -10 1 -10 -6 0 -7 -3
-10 -6 -6 -7 6 2 37 10 37 2 0 7 -7 10 -16z m2259 -7 c-4 -6 0 -8 9 -4 9 3 25
-3 37 -14 12 -11 21 -16 21 -12 0 4 6 1 13 -8 7 -9 17 -17 22 -18 6 -2 9 -7 8
-12 -2 -4 4 -6 12 -3 8 4 15 1 15 -5 0 -6 7 -11 15 -11 7 0 18 -8 24 -17 5
-10 13 -15 16 -11 4 4 21 -8 37 -25 17 -18 27 -25 23 -17 -7 12 -5 12 11 -1
10 -9 30 -25 43 -35 13 -10 32 -27 43 -36 10 -10 18 -15 18 -12 0 3 13 -8 29
-25 16 -17 35 -31 42 -31 7 0 10 -3 6 -6 -10 -11 31 -47 44 -39 8 5 10 4 5 -4
-8 -13 77 -101 98 -101 6 0 4 -5 -4 -10 -13 -8 -12 -10 3 -10 9 0 17 -4 17 -9
0 -4 10 -19 23 -33 40 -46 62 -81 59 -96 -2 -8 1 -11 7 -8 6 4 17 -7 26 -24 8
-16 13 -30 10 -30 -3 0 0 -7 7 -15 35 -42 39 -49 42 -85 0 -8 8 -20 16 -27 8
-7 11 -13 6 -13 -4 0 -2 -10 6 -22 8 -13 14 -33 13 -45 -1 -13 1 -23 5 -23 6
0 8 -8 12 -50 1 -11 6 -20 10 -20 5 0 4 -8 -1 -18 -7 -13 -6 -23 1 -30 9 -9 9
-12 0 -12 -14 0 -12 -21 3 -32 6 -5 5 -8 -2 -8 -7 0 -10 -6 -7 -14 3 -8 -4
-15 -20 -18 -27 -5 -50 15 -52 47 -3 52 -13 97 -24 110 -10 12 -10 15 1 16 10
0 11 2 1 6 -6 2 -10 9 -6 14 3 5 0 9 -6 9 -7 0 -10 6 -7 13 5 12 -9 52 -34
100 -5 10 -7 22 -4 27 4 6 -1 13 -9 16 -8 3 -23 26 -32 50 -9 24 -21 44 -26
44 -5 0 -6 5 -3 10 3 6 1 10 -4 10 -6 0 -11 7 -11 15 0 8 -5 15 -12 15 -6 0
-9 3 -5 6 3 3 -4 16 -15 29 -11 13 -20 27 -20 32 -1 4 -12 18 -27 30 -14 13
-23 23 -19 23 4 0 -11 18 -33 40 -22 22 -38 40 -34 40 4 0 -15 21 -41 48 -26
26 -51 46 -56 44 -4 -1 -7 1 -6 6 4 10 -74 88 -85 84 -5 -1 -6 1 -4 5 6 10
-19 34 -27 26 -3 -4 -6 2 -6 13 0 14 -3 15 -9 6 -6 -10 -15 -4 -36 22 -16 20
-34 36 -41 36 -7 0 -20 10 -29 23 -8 12 -18 21 -20 20 -3 -2 -11 -3 -17 -3 -9
0 -8 4 2 10 12 8 11 10 -7 10 -13 0 -23 5 -23 12 0 6 -3 9 -6 5 -7 -6 -54 32
-54 44 0 5 7 6 15 3 8 -4 12 -11 8 -17z m-2293 -19 c0 -18 -2 -20 -9 -8 -6 8
-7 18 -5 22 9 14 14 9 14 -14z m-30 -28 c-6 -12 -17 -19 -24 -17 -6 3 -24 -11
-40 -29 -15 -19 -35 -34 -43 -34 -8 0 -11 -5 -7 -12 5 -7 2 -9 -8 -5 -10 3
-26 -6 -44 -28 -15 -19 -33 -31 -41 -28 -8 3 -13 2 -12 -3 4 -24 -2 -36 -16
-30 -10 4 -15 -1 -15 -14 0 -14 -7 -20 -21 -20 -11 0 -17 -4 -14 -10 3 -5 -1
-10 -10 -10 -9 0 -14 -4 -11 -9 3 -5 -11 -23 -31 -40 -20 -17 -32 -31 -27 -31
5 -1 -2 -7 -16 -15 -14 -8 -21 -14 -15 -15 5 0 -15 -23 -45 -52 -30 -28 -48
-48 -40 -43 8 5 4 -5 -10 -21 -14 -16 -28 -30 -33 -32 -4 -2 -5 -8 -1 -13 3
-5 -2 -12 -10 -15 -9 -3 -16 -12 -16 -19 0 -7 -7 -18 -15 -25 -8 -7 -13 -16
-10 -20 3 -5 -4 -15 -15 -23 -11 -7 -17 -17 -13 -20 3 -4 1 -7 -5 -7 -6 0 -9
-9 -7 -20 2 -11 0 -18 -6 -15 -5 4 -9 -3 -9 -14 0 -12 -6 -21 -14 -21 -9 0
-12 -7 -9 -20 3 -11 1 -20 -4 -20 -5 0 -10 -6 -11 -12 -3 -34 -26 -108 -34
-108 -4 0 -8 -5 -8 -11 0 -5 6 -7 13 -3 7 5 7 1 -2 -10 -8 -10 -15 -30 -16
-44 -1 -15 -7 -38 -14 -51 -8 -14 -9 -21 -2 -17 7 5 8 1 4 -11 -12 -30 -25
-39 -54 -35 -24 3 -27 8 -24 33 3 21 1 28 -8 22 -7 -4 -7 0 2 10 7 9 10 17 6
17 -4 0 -1 8 6 17 10 11 10 14 2 9 -7 -4 -13 -2 -13 3 0 6 5 11 10 11 6 0 8
11 6 24 -2 13 -2 27 1 30 4 3 8 18 9 33 2 14 9 30 15 34 10 6 10 11 0 23 -11
14 -11 16 4 16 10 0 15 3 12 6 -3 4 -1 16 5 28 7 11 13 27 14 35 2 8 8 17 14
21 7 4 11 10 11 14 -3 19 0 27 7 22 4 -2 9 5 9 16 1 11 10 27 20 35 10 8 12
11 4 7 -7 -4 -3 7 10 25 12 17 26 31 31 31 4 0 7 6 5 13 -1 6 4 11 11 9 8 -1
11 2 7 8 -4 6 7 24 24 39 17 15 31 36 31 45 0 9 5 14 10 11 6 -3 10 -1 10 5 0
6 20 29 45 52 24 23 41 46 38 51 -3 6 -1 7 5 3 7 -4 12 -2 12 4 0 7 7 9 16 6
8 -3 13 -2 10 2 -5 9 37 62 49 62 4 0 14 8 22 18 9 10 12 11 7 2 -4 -9 2 -7
13 5 11 11 18 24 15 29 -3 5 0 6 7 2 6 -4 14 0 17 8 3 9 10 13 15 10 5 -3 9 2
9 11 0 9 5 13 10 10 6 -3 10 -1 10 6 0 7 3 10 6 6 3 -3 20 7 38 23 17 17 36
30 42 30 6 0 17 7 24 15 7 8 15 13 19 10 4 -2 15 5 24 16 9 10 24 19 32 19 8
0 15 5 15 10 0 6 6 9 13 8 6 -2 11 4 9 12 -3 11 -1 12 8 4 9 -9 9 -17 0 -34z
m1070 -170 c0 -11 4 -21 9 -25 5 -3 9 -18 9 -34 -1 -22 -5 -28 -16 -23 -9 3
-13 1 -9 -5 5 -8 -44 -10 -63 -3 -3 1 -8 2 -12 1 -5 0 -8 8 -8 19 0 11 5 20
11 20 5 0 8 4 4 9 -3 5 5 17 17 26 13 8 24 20 24 25 3 18 4 19 19 14 8 -4 15
-14 15 -24z m271 6 c5 3 9 2 8 -3 -3 -19 2 -34 10 -28 8 5 21 -19 27 -51 1 -6
-8 -10 -20 -9 -11 1 -27 -3 -35 -9 -17 -13 -17 -13 -42 16 -12 13 -16 24 -10
26 6 2 11 10 11 18 0 8 8 27 17 41 15 22 19 24 21 10 2 -10 8 -15 13 -11z
m-317 -196 c33 -14 46 -25 46 -40 0 -11 -5 -20 -11 -20 -5 0 -8 -3 -6 -7 3 -5
-1 -14 -9 -21 -12 -11 -14 -10 -14 3 0 8 -7 15 -15 15 -8 0 -12 6 -9 14 3 8
-3 20 -14 27 -10 8 -19 22 -19 32 0 21 -4 21 51 -3z m363 0 c1 -11 -2 -20 -8
-20 -5 0 -9 -9 -9 -21 0 -11 -4 -17 -10 -14 -5 3 -10 0 -10 -9 0 -36 -47 -17
-55 23 -3 18 11 30 44 37 7 1 18 7 24 13 16 16 23 13 24 -9z m-1332 -30 c3 -6
-1 -7 -9 -4 -18 7 -21 14 -7 14 6 0 13 -4 16 -10z m-46 -131 c-15 -9 -32 -2
-24 11 3 5 13 6 21 3 12 -4 13 -8 3 -14z m2381 6 c0 -2 -7 -5 -15 -9 -9 -3
-15 0 -15 9 0 9 6 12 15 9 8 -4 15 -7 15 -9z m-2406 -131 c3 -7 -4 -11 -18
-10 -13 0 -22 6 -19 12 5 15 31 14 37 -2z m2431 -13 c-6 -5 -25 10 -25 20 0 5
6 4 14 -3 8 -7 12 -15 11 -17z m-2983 -88 c-6 -2 -10 -9 -6 -14 3 -5 -1 -9 -8
-9 -9 0 -9 -3 2 -10 8 -5 11 -10 5 -10 -5 0 -3 -5 5 -10 11 -7 11 -10 2 -10
-7 0 -1 -11 14 -25 15 -14 23 -25 19 -25 -4 0 -1 -8 6 -17 12 -15 12 -16 -1
-8 -13 7 -13 6 -2 -7 9 -12 10 -18 2 -23 -8 -5 -8 -11 1 -21 9 -11 8 -15 -4
-20 -9 -3 -19 -14 -22 -25 -4 -10 -13 -19 -21 -19 -8 0 -13 -4 -10 -9 7 -10
-18 -22 -56 -27 -21 -3 -26 0 -22 11 4 8 11 12 18 8 7 -5 7 -2 -1 8 -7 9 -8
20 -3 28 4 8 6 21 2 29 -4 11 -2 13 9 7 11 -7 11 -5 -1 10 -10 13 -11 16 -2
11 10 -6 13 -2 10 15 -2 13 4 30 12 37 8 8 9 11 3 7 -7 -3 -13 -1 -13 4 0 6 5
11 11 11 5 0 7 5 4 10 -3 6 -1 10 5 10 6 0 8 5 5 10 -10 17 17 80 35 79 10 0
11 -2 2 -6z m1738 -18 c0 6 11 11 25 11 14 1 25 -1 25 -5 0 -4 6 -8 13 -8 32
-1 78 -30 70 -44 -1 -4 4 -10 13 -13 8 -3 13 -10 9 -15 -3 -5 -1 -12 3 -15 11
-7 6 -118 -6 -125 -5 -3 -14 -16 -21 -28 -6 -13 -23 -26 -36 -29 -14 -3 -25
-10 -25 -15 0 -14 -97 -11 -112 4 -7 6 -19 13 -27 15 -32 7 -71 74 -73 126 -1
19 6 46 16 61 9 14 14 30 11 35 -3 6 1 7 10 4 11 -5 14 -2 8 12 -4 11 -3 15 4
11 6 -4 18 0 27 9 9 8 20 13 25 9 5 -3 13 0 17 6 4 8 9 7 15 -2 5 -8 9 -9 9
-4z m-1211 -17 c-12 -23 -31 -24 -22 -1 4 11 3 14 -5 9 -7 -4 -12 -2 -12 3 0
6 11 10 24 9 20 -2 23 -5 15 -20z m611 -8 c8 -5 11 -10 5 -10 -5 0 -2 -5 8
-11 9 -5 17 -17 17 -24 0 -8 7 -15 15 -15 9 0 18 -7 21 -15 4 -8 10 -12 15 -9
5 3 9 1 9 -4 0 -5 18 -17 40 -27 22 -10 40 -22 40 -26 0 -4 9 -6 20 -4 11 2
20 0 20 -5 0 -5 9 -7 20 -5 11 2 18 0 15 -6 -6 -9 10 -14 30 -9 31 7 55 6 55
-1 0 -5 5 -8 12 -6 17 3 17 -24 0 -51 -13 -19 -13 -22 0 -17 10 4 14 -2 14
-19 0 -17 -4 -22 -15 -18 -8 3 -12 1 -9 -4 4 -5 -9 -9 -28 -10 -19 0 -31 3
-27 9 4 6 1 7 -8 1 -19 -12 -31 -12 -46 -2 -6 5 -14 4 -18 -2 -4 -6 -22 -10
-40 -8 -19 1 -37 -1 -41 -5 -12 -12 -46 -8 -38 4 4 8 1 8 -12 2 -11 -5 -26 -9
-34 -8 -8 0 -18 -4 -22 -10 -5 -6 -8 -6 -8 0 0 9 -136 12 -145 3 -2 -2 -27 -3
-54 -2 -28 1 -49 -2 -46 -6 3 -5 -3 -7 -12 -6 -13 2 -18 13 -18 42 0 27 -5 38
-13 36 -9 -1 -11 2 -5 10 4 7 6 21 5 31 -2 11 3 17 16 17 11 0 25 7 32 15 7 9
15 13 17 11 3 -2 13 4 24 15 10 10 26 19 35 19 8 0 12 5 9 10 -6 9 8 14 28 11
4 0 6 3 5 8 -2 5 14 25 36 45 21 20 36 36 32 36 -8 0 16 29 24 29 3 1 12 -4
20 -9z m1257 3 c-4 -3 2 -13 13 -20 11 -8 17 -20 14 -26 -4 -7 -3 -9 1 -4 10
9 45 -21 45 -40 0 -7 6 -12 13 -10 6 1 11 -4 9 -11 -1 -8 2 -11 6 -8 5 3 20
-3 32 -14 12 -11 31 -22 41 -25 11 -4 16 -11 13 -17 -4 -6 -2 -8 4 -4 6 3 17
0 25 -8 8 -8 17 -12 21 -9 3 4 6 1 6 -6 0 -7 5 -9 11 -5 7 4 6 -2 -2 -17 -6
-13 -11 -40 -11 -60 2 -41 -18 -58 -39 -33 -8 10 -15 11 -24 4 -7 -6 -23 -6
-43 0 -22 6 -32 5 -32 -2 0 -7 -4 -7 -13 0 -7 6 -18 7 -25 3 -7 -4 -33 -5 -57
-1 -30 5 -45 3 -45 -4 0 -8 -2 -8 -8 0 -4 6 -22 10 -40 8 -20 -1 -30 1 -26 8
4 6 -1 6 -13 -1 -11 -6 -22 -9 -24 -7 -2 2 -21 6 -42 9 -25 4 -35 2 -31 -5 4
-6 -2 -6 -15 1 -11 7 -21 9 -21 5 0 -3 -8 0 -17 7 -15 12 -16 12 -10 -5 6 -16
5 -17 -8 -6 -8 7 -15 9 -15 4 0 -4 -5 -3 -12 4 -8 8 -15 9 -25 1 -10 -9 -13
-8 -13 2 0 11 -2 11 -10 -1 -11 -17 -12 -14 -14 62 -1 51 1 57 17 52 9 -3 17
-1 17 5 0 6 11 6 30 1 23 -7 32 -5 40 8 8 14 10 14 10 2 0 -12 3 -11 11 3 6 9
15 15 20 11 5 -3 26 4 45 15 19 12 32 15 29 9 -4 -7 3 -3 14 10 11 13 23 22
26 21 9 -2 86 64 81 69 -8 7 18 31 33 32 8 0 11 -3 8 -7z m-1880 -126 c-3 -10
-47 -19 -47 -9 0 3 8 11 17 18 19 13 36 9 30 -9z m-309 -95 c7 -7 18 -10 23
-6 5 3 17 -2 26 -11 9 -10 26 -15 39 -12 13 2 21 0 18 -4 -3 -5 4 -9 15 -9 11
0 22 -4 25 -8 3 -5 19 -7 37 -4 24 3 30 1 24 -8 -6 -9 -3 -9 15 0 13 7 20 8
16 2 -3 -6 -2 -13 4 -17 5 -3 10 -2 10 4 0 10 19 9 38 -2 6 -5 12 -4 12 2 0
10 18 10 37 -2 6 -4 15 -2 19 4 4 8 9 7 15 -2 7 -12 9 -12 9 0 0 8 6 11 16 7
9 -4 13 -2 8 5 -4 7 -2 10 5 8 7 -3 13 -9 13 -14 1 -6 8 -16 17 -23 12 -10 12
-12 1 -6 -13 7 -13 5 -2 -8 16 -20 6 -27 -42 -30 -20 -2 -36 -6 -36 -9 0 -4
-10 -5 -22 -5 -13 1 -31 -2 -40 -6 -12 -6 -18 -5 -18 3 0 9 -3 9 -14 0 -8 -7
-30 -13 -49 -15 -19 -2 -41 -7 -48 -11 -8 -6 -10 -4 -4 6 7 11 6 12 -7 2 -8
-7 -18 -10 -21 -6 -4 3 -7 1 -7 -5 0 -6 -7 -9 -17 -5 -11 5 -14 3 -8 -6 6 -10
3 -11 -14 -2 -17 9 -26 8 -48 -6 -15 -10 -24 -12 -20 -5 5 6 4 12 -2 12 -6 0
-11 -5 -11 -11 0 -6 -7 -9 -15 -6 -8 4 -17 2 -20 -4 -4 -5 -11 -7 -16 -4 -5 4
-9 1 -9 -5 0 -6 -4 -9 -9 -6 -5 3 -8 19 -7 36 1 16 -2 30 -8 30 -5 0 -6 3 -3
7 4 3 2 12 -4 20 -6 7 -8 13 -4 13 4 0 -4 9 -19 21 -32 25 -32 33 -3 62 12 12
21 25 20 30 -2 4 2 7 9 7 6 0 8 3 5 7 -4 3 -2 12 4 19 11 14 36 5 67 -24z
m3167 7 c-2 -10 7 -28 20 -41 28 -26 31 -40 13 -60 -23 -25 -61 -81 -50 -74 6
4 10 -2 9 -14 -1 -11 -5 -20 -10 -20 -4 0 -6 -4 -2 -9 6 -10 -27 -7 -45 4 -6
3 -10 0 -10 -7 -1 -9 -4 -8 -10 3 -6 10 -20 15 -35 14 -14 -2 -27 1 -30 5 -3
5 -12 7 -20 3 -8 -3 -15 -1 -15 3 0 5 -18 10 -40 11 -22 1 -52 5 -67 8 -15 4
-38 8 -50 10 -12 2 -27 6 -32 10 -6 3 -11 1 -11 -5 0 -6 -12 -3 -27 7 -21 14
-25 15 -19 3 7 -12 6 -12 -4 -3 -7 6 -19 9 -28 6 -11 -5 -13 -2 -7 6 6 10 3
11 -14 2 -15 -8 -21 -9 -21 -1 0 6 -5 8 -10 5 -7 -4 -8 3 -4 22 4 15 11 30 16
31 4 2 6 8 2 13 -8 14 9 11 32 -6 12 -8 24 -11 28 -8 11 11 56 11 56 1 0 -5 6
-6 13 -1 20 12 37 12 37 0 0 -8 3 -8 8 -2 4 6 18 12 32 13 14 2 26 8 28 12 2
5 16 5 31 0 22 -6 32 -4 45 11 13 16 20 17 36 9 15 -8 20 -8 18 1 -2 6 6 13
16 15 11 1 31 11 45 22 33 24 80 25 76 1z m-3695 -143 c0 4 12 -2 27 -11 25
-17 26 -17 19 0 -5 15 -4 16 8 6 8 -6 29 -12 47 -11 52 0 69 -3 69 -12 0 -5 4
-7 9 -4 11 7 9 -13 -3 -33 -6 -10 -5 -12 2 -7 11 6 16 -6 13 -26 0 -5 3 -8 8
-8 5 0 11 -11 13 -24 4 -18 0 -25 -11 -25 -47 -3 -61 -6 -61 -15 0 -5 -3 -6
-7 -3 -3 4 -12 2 -20 -4 -10 -9 -13 -8 -13 2 0 11 -2 11 -9 0 -19 -30 -71 -22
-77 12 -1 4 -3 9 -4 12 -1 3 -3 11 -4 18 -1 6 -8 11 -16 9 -8 -2 -12 0 -8 3 4
4 1 20 -8 36 -8 16 -14 31 -14 34 1 22 -1 25 -12 19 -8 -5 -9 0 -6 14 4 12 2
20 -3 16 -5 -3 -9 4 -9 15 0 21 0 21 35 1 19 -11 35 -17 35 -14z m4220 -2 c0
-8 -4 -12 -10 -9 -5 3 -10 -1 -10 -9 0 -9 -4 -16 -10 -16 -5 0 -10 -5 -10 -11
0 -5 6 -7 13 -4 6 4 1 -3 -13 -16 -14 -12 -24 -26 -22 -31 1 -6 -2 -16 -8 -22
-5 -7 -7 -16 -3 -19 3 -4 1 -7 -6 -7 -7 0 -9 -4 -6 -10 3 -5 1 -10 -4 -10 -6
0 -11 -10 -11 -22 0 -13 -4 -18 -8 -13 -4 6 -16 11 -27 11 -12 0 -19 6 -17 14
3 12 1 12 -9 3 -12 -12 -42 -6 -34 7 3 5 -4 6 -15 3 -12 -3 -20 0 -20 6 0 8
-5 9 -17 3 -11 -7 -21 -6 -30 4 -11 11 -10 18 5 44 11 17 18 43 16 59 -2 16 2
28 9 29 38 3 75 3 94 -2 13 -2 25 0 28 5 4 5 11 7 16 4 5 -4 9 -2 9 4 0 5 8 8
18 6 10 -1 29 3 42 10 28 15 40 11 40 -11z"/>
<path d="M3170 2845 c-8 -10 -17 -12 -24 -6 -17 15 -69 -61 -69 -101 1 -46 13
-89 24 -82 5 3 9 -2 9 -10 0 -34 122 -43 156 -11 12 11 22 24 22 28 1 4 11 17
24 27 13 11 17 19 11 20 -7 0 -13 -5 -13 -12 0 -6 -3 -8 -6 -5 -4 4 -2 12 4
20 12 14 11 34 -1 55 -5 6 -5 12 -2 12 4 0 -7 13 -24 29 -16 15 -28 30 -26 33
3 3 -13 4 -35 2 -22 -1 -38 2 -34 7 9 15 -2 10 -16 -6z"/>
<path d="M546 4878 c3 -5 10 -6 15 -3 13 9 11 12 -6 12 -8 0 -12 -4 -9 -9z"/>
<path d="M2590 2351 c-18 -12 -22 -12 -15 -2 6 11 4 13 -11 6 -10 -4 -36 -8
-56 -8 -21 -1 -38 -5 -38 -9 0 -4 -11 -3 -25 2 -14 5 -27 5 -30 0 -3 -4 -23
-7 -45 -6 -23 2 -43 -1 -46 -6 -3 -5 -12 -7 -20 -4 -7 3 -16 1 -19 -4 -3 -5
-18 -5 -35 0 -20 6 -30 5 -30 -2 0 -5 -7 -8 -15 -4 -8 3 -15 2 -15 -2 0 -4
-12 -9 -27 -10 -47 -4 -87 -10 -120 -21 -24 -7 -33 -6 -33 2 0 7 -4 6 -10 -3
-9 -13 -10 -13 -10 0 0 9 -3 11 -8 5 -8 -12 -19 -15 -87 -22 -27 -3 -58 -10
-69 -15 -13 -7 -16 -7 -12 1 4 6 3 11 -3 11 -5 0 -12 -4 -15 -9 -3 -5 -20 -8
-37 -7 -16 1 -32 -1 -35 -6 -3 -5 -10 -6 -15 -3 -5 4 -9 1 -9 -5 0 -5 -12 -10
-27 -10 -45 0 -63 -3 -63 -11 0 -4 -9 -6 -20 -4 -11 2 -20 0 -20 -5 0 -5 -9
-7 -20 -5 -11 2 -20 0 -20 -5 0 -4 -8 -7 -17 -6 -10 2 -21 -1 -24 -6 -4 -6
-14 -6 -28 1 -16 9 -19 9 -15 -2 3 -9 -4 -13 -23 -12 -15 0 -38 -6 -51 -13
-12 -8 -33 -12 -47 -10 -14 3 -23 1 -22 -6 1 -6 -6 -10 -15 -8 -10 2 -18 -2
-18 -9 0 -8 -4 -8 -15 1 -11 9 -15 9 -15 1 0 -7 -4 -9 -10 -6 -5 3 -10 2 -10
-4 0 -5 -9 -8 -19 -6 -11 2 -22 -3 -25 -11 -3 -8 -11 -14 -18 -14 -9 0 -8 3 2
10 23 15 7 12 -27 -5 -17 -9 -33 -21 -36 -28 -5 -15 0 -94 8 -127 4 -14 7 -33
7 -42 -1 -10 4 -18 9 -18 6 0 8 -4 5 -9 -3 -4 1 -16 8 -27 8 -10 12 -24 9 -31
-3 -7 0 -13 6 -13 6 0 11 -3 10 -7 -2 -16 14 -53 23 -53 5 0 6 -4 3 -10 -3 -5
-1 -10 5 -10 6 0 8 -5 4 -12 -4 -6 -3 -8 4 -4 6 3 21 -4 33 -16 12 -13 18 -16
14 -8 -7 12 -6 13 7 3 8 -7 18 -10 21 -6 4 3 7 1 7 -6 0 -7 5 -9 12 -5 17 11
58 11 58 1 0 -4 8 -3 19 2 10 6 21 7 25 4 3 -3 6 0 6 7 0 7 3 10 6 7 4 -4 15
2 25 14 12 14 18 16 22 7 4 -10 6 -10 6 0 1 7 7 19 14 25 13 13 49 19 42 7 -3
-4 5 -8 18 -8 12 0 41 -2 65 -5 23 -2 45 0 47 4 3 4 13 6 22 5 10 -2 24 3 31
11 8 7 18 10 24 7 7 -4 8 -2 4 4 -4 7 -1 12 8 12 9 0 16 5 16 11 0 5 5 7 10 4
6 -3 10 1 10 9 0 9 7 16 16 16 8 0 12 -4 9 -10 -3 -6 1 -7 9 -4 9 3 16 2 16
-4 0 -5 11 -8 24 -7 13 2 36 -3 50 -11 15 -7 24 -9 21 -4 -4 6 0 10 9 10 8 0
17 -6 19 -12 3 -7 6 -4 6 6 1 11 4 17 7 13 4 -3 19 0 34 8 15 8 31 11 35 7 5
-4 5 -2 2 4 -3 6 7 18 22 27 25 15 30 15 41 2 7 -8 21 -15 32 -15 10 0 17 -4
14 -9 -3 -5 12 -8 34 -7 23 2 40 -2 40 -8 0 -8 3 -7 8 0 4 6 15 10 25 8 9 -1
17 2 17 7 0 6 5 7 10 4 14 -9 42 14 33 28 -3 5 -1 7 4 4 6 -4 16 0 23 8 17 20
40 19 40 -2 0 -13 3 -14 8 -6 6 10 13 9 33 -1 14 -7 38 -12 52 -10 15 1 27 -2
27 -8 0 -6 6 -6 15 2 8 7 22 10 30 6 9 -3 13 -2 10 4 -3 6 0 10 7 10 7 0 24
10 38 21 14 11 19 17 11 13 -9 -4 -12 -3 -7 4 7 12 36 5 36 -9 0 -5 3 -9 8 -8
14 2 52 -13 48 -20 -5 -7 3 -8 64 -13 19 -1 38 -7 42 -13 5 -6 8 -5 8 3 0 7 5
10 10 7 6 -3 10 -1 10 5 0 6 4 9 9 6 13 -8 42 4 36 15 -3 5 6 11 20 15 13 3
23 10 20 14 -3 4 2 11 11 14 9 3 25 -4 40 -19 13 -13 24 -22 24 -20 0 2 17 -2
39 -10 28 -10 42 -10 50 -2 8 8 11 8 11 -1 0 -9 8 -8 25 4 14 9 25 13 25 9 0
-5 14 6 30 23 17 18 30 27 30 21 0 -5 4 -8 9 -4 6 3 13 -1 18 -9 4 -8 15 -16
23 -18 8 -2 21 -11 28 -21 10 -13 17 -15 27 -7 9 8 15 8 20 1 4 -7 16 -6 35 4
32 17 53 20 30 5 -9 -6 -10 -10 -3 -10 6 0 15 5 18 10 4 6 11 7 17 4 6 -4 8
-2 5 3 -8 13 20 26 36 16 6 -4 8 0 4 10 -10 27 10 19 48 -18 19 -20 35 -33 35
-30 0 3 10 1 21 -6 17 -9 20 -8 13 3 -6 10 -5 11 7 2 8 -6 22 -10 32 -9 9 2
17 -2 17 -8 0 -6 7 -2 16 9 8 10 13 13 9 7 -9 -18 3 -16 22 3 12 11 18 12 23
4 6 -9 10 -9 16 2 5 8 20 21 33 28 21 11 26 10 36 -4 7 -8 15 -13 18 -9 4 3 9
-1 13 -10 3 -9 14 -14 25 -12 12 3 17 0 13 -7 -5 -7 0 -9 14 -6 13 4 22 1 22
-5 0 -8 3 -8 8 -2 10 15 32 17 32 3 0 -6 12 -1 27 13 14 13 23 18 19 12 -9
-15 10 -18 19 -3 4 6 11 8 16 5 5 -4 9 -2 9 4 0 5 9 9 20 8 11 -1 20 -7 20
-15 0 -7 4 -11 9 -7 6 3 13 -1 18 -8 8 -14 53 -42 53 -33 0 3 14 1 30 -4 18
-5 30 -5 30 1 0 5 5 9 11 9 5 0 7 -6 3 -12 -5 -9 -2 -9 9 1 9 7 17 10 17 6 0
-4 7 -2 15 5 8 7 15 9 15 4 0 -5 5 -1 11 9 8 14 14 16 25 6 12 -10 13 -9 8 6
-5 13 -3 16 7 13 8 -3 13 -11 11 -17 -1 -7 2 -10 7 -7 5 4 16 -1 24 -9 9 -8
23 -15 31 -15 9 0 16 -5 16 -11 0 -7 10 -9 25 -7 13 3 22 2 20 -3 -3 -4 13 -7
35 -6 22 1 40 6 40 11 0 4 7 6 15 2 8 -3 15 0 15 6 0 6 3 8 6 5 4 -3 15 -2 24
3 14 8 25 3 50 -20 28 -26 43 -34 53 -28 1 1 13 -5 27 -12 29 -16 45 -18 83
-8 16 4 27 3 27 -4 0 -7 5 -6 15 2 8 6 19 9 25 5 5 -3 10 -1 10 5 0 7 6 10 13
7 6 -2 11 -9 10 -15 -2 -7 4 -9 14 -5 11 4 14 3 9 -5 -4 -7 -2 -12 4 -12 6 0
18 -7 27 -15 8 -8 19 -13 24 -10 5 4 9 2 9 -2 0 -8 66 -17 98 -14 6 1 21 2 32
3 11 1 20 6 20 11 0 4 4 6 8 3 8 -5 80 54 75 61 -8 9 -2 33 7 28 6 -3 7 1 4 9
-4 9 -1 16 6 16 7 0 10 7 6 15 -3 8 -1 15 4 15 6 0 10 10 10 23 0 13 5 28 11
34 5 5 11 24 11 42 1 17 6 31 12 31 6 0 4 5 -4 10 -12 8 -12 10 -1 10 11 0 11
3 0 17 -8 9 -9 14 -3 10 16 -9 25 18 11 32 -6 6 -8 11 -4 11 4 0 3 9 -3 20 -6
11 -17 20 -25 20 -7 0 -21 7 -29 16 -9 8 -16 11 -16 5 0 -7 -8 -7 -22 -2 -36
15 -63 23 -64 19 0 -2 -8 3 -16 9 -8 7 -24 11 -36 8 -12 -2 -24 0 -27 5 -3 5
-13 6 -22 3 -12 -5 -14 -3 -8 7 6 10 4 12 -7 8 -8 -4 -21 -2 -29 2 -8 5 -16 5
-19 -1 -4 -5 -17 1 -30 13 -14 13 -25 18 -27 11 -3 -8 -14 -8 -37 2 -19 8 -36
11 -40 8 -3 -4 -6 -2 -6 3 0 5 -10 10 -22 10 -31 3 -56 9 -64 16 -3 4 -12 4
-20 1 -8 -3 -22 1 -31 8 -14 12 -16 12 -8 -1 5 -9 0 -8 -13 4 -13 11 -22 14
-22 7 0 -8 -6 -9 -17 -3 -10 5 -28 8 -40 7 -13 -1 -23 2 -23 6 0 4 -13 6 -30
5 -16 -1 -30 1 -30 5 0 4 -16 5 -35 3 -20 -1 -33 1 -31 5 3 5 -8 7 -24 5 -17
-2 -30 0 -30 4 0 4 -18 7 -40 5 -24 -1 -45 4 -54 13 -9 9 -17 10 -21 4 -4 -6
-12 -7 -18 -3 -11 6 -36 11 -99 16 -16 1 -28 4 -28 7 0 3 -17 6 -38 6 -47 2
-80 8 -88 17 -4 3 -15 2 -25 -4 -13 -6 -19 -6 -19 0 0 7 -9 7 -25 1 -16 -6
-25 -6 -25 1 0 6 -8 6 -21 -2 -17 -9 -20 -8 -14 2 6 9 2 11 -13 7 -12 -4 -20
-2 -16 3 3 5 0 9 -5 9 -6 0 -11 -5 -11 -11 0 -8 -4 -9 -13 0 -8 6 -16 8 -20 5
-3 -3 -14 -1 -26 5 -11 7 -22 7 -25 2 -5 -7 -41 -8 -41 -1 0 5 -71 5 -79 1
-15 -7 -56 -7 -56 0 0 7 -57 2 -71 -6 -5 -4 -9 -2 -9 3 0 9 -83 7 -99 -2 -5
-4 -12 -3 -15 2 -4 6 -81 8 -81 2 0 -1 -10 -3 -22 -4 -13 -2 -23 1 -23 4 0 8
-56 3 -71 -5 -5 -4 -9 -2 -9 3 0 9 -83 7 -99 -2 -5 -4 -12 -3 -15 2 -4 6 -81
8 -81 2 0 -1 -10 -3 -22 -4 -13 -2 -23 1 -23 5 0 7 -40 4 -67 -6 -7 -2 -13 -1
-13 3 0 9 -89 7 -98 -2 -3 -3 -11 -1 -19 5 -9 9 -13 8 -13 0 0 -9 -5 -9 -21
-1 -12 7 -25 8 -32 3 -13 -10 -27 -11 -42 -1 -5 3 -21 -2 -35 -11z"/>
</g>
</svg>
